<svg xmlns="http://www.w3.org/2000/svg" viewBox="0 0 83.78 120.58"><defs><style>.cls-1{fill:#0e335b;}.cls-2{fill:red;}.cls-3{fill:#f52e25;}</style></defs><g id="Layer_2" data-name="Layer 2"><g id="Layer_1-2" data-name="Layer 1"><path class="cls-1" d="M34.79,80,44,74.88l-33.24-40V9.48h26V36.6H47.46v-28a8.4,8.4,0,0,0-2.35-6.16A8.21,8.21,0,0,0,39,0H8.63a8.46,8.46,0,0,0-6.2,2.39A8.26,8.26,0,0,0,0,8.55V33a14,14,0,0,0,3.47,9.17Z"/><path class="cls-2" d="M47.46,93.81V84.14a13.62,13.62,0,0,0-1-5.21l-9.7,5.41V100Z"/><path class="cls-1" d="M36.75,105.48v5.63h-26V81.44H0V112a8.25,8.25,0,0,0,2.43,6.16,8.42,8.42,0,0,0,6.2,2.39H39a8.17,8.17,0,0,0,6.12-2.39A8.38,8.38,0,0,0,47.46,112V99.3Z"/><polygon class="cls-1" points="65.31 9.88 60.81 67.47 81.28 56.77 76.31 9.88 65.31 9.88"/><polygon class="cls-2" points="61 72.7 60.44 88.7 81.63 76.08 81.63 61.1 61 72.7"/><polygon class="cls-1" points="60.44 95.06 60.44 106.92 71.13 119.58 81.63 107.94 81.63 81.31 60.44 95.06"/><polygon class="cls-3" points="83.78 0 75.64 7.21 69.91 7.21 69.9 0 83.78 0"/><polygon class="cls-3" points="56.78 0 64.92 7.21 70.66 7.21 70.66 0 56.78 0"/></g></g></svg>