<?xml version="1.0" standalone="yes"?>
<svg xmlns="http://www.w3.org/2000/svg" width="3584" height="2108">
<path style="fill:#ffffff; stroke:none;" d="M0 0L0 889L0 1162L0 1246C0 1257.36 -2.79496 1272.91 0.317901 1283.82C2.43657 1291.24 18.8486 1298.76 25 1303.02C48.0826 1319.01 70.8673 1335.43 94 1351.34C167.082 1401.61 239.076 1453.47 312 1503.98C332.401 1518.1 352.555 1532.59 373 1546.66C379.205 1550.93 393.559 1557.45 396.799 1564.33C398.48 1567.89 395.579 1574.35 394.79 1578C392.26 1589.7 389.33 1601.33 386.651 1613C376.474 1657.35 361.824 1702.9 356 1748C346.157 1745.1 337 1738.19 328 1733.31C308.589 1722.79 289.411 1711.83 270 1701.31C207.096 1667.21 144.904 1631.79 82 1597.69C55.4166 1583.28 28.3967 1563.33 0 1553L0 2108L669 2108L603.08 2029L464.586 1864L410.92 1800L387.614 1771L390.25 1750L399.576 1698L432.576 1512L554 828C576.142 841.847 595.793 862.012 616 878.576C657.446 912.549 698.786 946.664 740 980.919C758.938 996.66 778.091 1012.14 797 1027.92C804.497 1034.17 815.988 1040.63 821.143 1049.01C827.132 1058.75 826.665 1075.84 828.803 1087C834.793 1118.25 839.779 1149.69 845.424 1181C865.005 1289.61 884.36 1398.27 903.25 1507C914.196 1570.01 924.764 1633.19 936.803 1696C940.181 1713.62 942.819 1731.38 946.197 1749C947.454 1755.56 951.536 1766.53 949.386 1773C946.204 1782.58 934.169 1792.3 927.753 1800L876.753 1861C832.525 1914.07 788.554 1967.43 743.728 2020C727.641 2038.87 711.818 2057.97 695.92 2077C687.614 2086.94 677.483 2096.77 671 2108L3584 2108L3584 1154L3583 1154L3565.15 1222L3528.87 1358L3515.29 1409L3508.7 1426.97L3497 1428L3469 1428L3457.09 1425.68L3451.37 1407L3440.85 1368L3415.12 1273L3403 1227L3402 1227C3396.12 1242.57 3393.66 1259.86 3389.63 1276C3381.3 1309.32 3373.2 1342.68 3364.87 1376C3361.79 1388.31 3358.95 1400.68 3355.87 1413C3354.88 1416.98 3354.44 1424.55 3350.7 1426.97C3347.67 1428.93 3342.43 1428 3339 1428L3311 1428C3307.06 1428 3301.87 1428.92 3299.65 1424.85C3295.04 1416.43 3293.57 1404.28 3291.12 1395C3286.26 1376.63 3280.97 1358.37 3276.12 1340C3259.41 1276.76 3243.92 1212.29 3224 1150L3262 1150L3276.7 1151.03L3281.71 1164L3292.13 1203L3331 1349L3332 1349L3344.63 1297L3367.63 1204L3377.12 1166L3381.56 1151.6L3396 1150L3433 1150L3448.85 1210L3487 1350L3488 1350L3500.85 1299L3524.88 1206L3539 1150L3584 1150L3584 0L762 0L762 1C908.714 1 1056.73 18.3594 1201 45.3889C1235.53 51.8591 1269.91 59.3516 1304 67.8734L1329 74.1266C1332.17 74.9185 1337.03 75.3011 1338.97 78.3032C1342.47 83.7133 1340 96.6935 1340 103L1340 168L1340 412C1314.6 386.532 1291.93 357.898 1268.05 331C1258.8 320.575 1249.06 304.471 1237 297.363C1217.63 285.957 1193.29 279.486 1172 272.656C1125.94 257.881 1078.73 246.826 1031 238.92C869.02 212.088 701.517 208.89 538 220.089C475.242 224.388 412.551 229.666 350 237.155C329.967 239.554 309.985 242.346 290 245.13C282.801 246.133 272.098 249.883 265 248.266C257.855 246.639 250.599 237.881 245 233.4L200 197.2C164.935 169.147 130.065 140.853 95 112.8C75.0598 96.8474 53.4458 81.6519 35 64C86.8331 57.3069 138.216 44.8992 190 37.2715C331.006 16.5015 474.526 1 617 1L599 0L563 0L437 0L0 0z"/>
<path style="fill:#010181; stroke:none;" d="M617 0L618 1L617 0z"/>
<path style="fill:#2165d1; stroke:none;" d="M35 64C48.2028 81.2513 72.0041 95.0043 89 108.6C126.397 138.516 163.834 168.409 201 198.611C215.281 210.216 229.812 221.532 244 233.25C249.58 237.859 256.914 246.369 264 248.322C268.675 249.61 275.307 247.343 280 246.589C290.302 244.935 300.674 243.759 311 242.271C344.861 237.392 378.964 233.464 413 230.17C525.708 219.263 639.598 212.237 753 215.015C870.951 217.904 989.715 226.785 1105 254.116C1135.12 261.257 1164.84 269.895 1194 280.308C1207.86 285.257 1223.31 289.794 1236 297.353C1246.3 303.487 1254.16 316.111 1262.05 325C1278.28 343.278 1294.62 361.489 1310.58 380C1319.59 390.451 1328.74 404.004 1340 412L1340 165L1340 101C1340 95.4042 1342.43 82.2896 1338.97 77.7029C1335.58 73.1974 1323.23 72.4349 1318 71.1266C1298.74 66.3121 1279.46 61.3235 1260 57.3997C1183.28 41.9312 1106.74 28.1484 1029 18.845C698.04 -20.761 362.005 2.38843 35 64z"/>
<path style="fill:#010181; stroke:none;" d="M761 0L762 1L761 0z"/>
<path style="fill:#010101; stroke:none;" d="M581 1L582 2L581 1z"/>
<path style="fill:#0140c2; stroke:none;" d="M796 1L797 2L796 1M822 2L823 3L822 2z"/>
<path style="fill:#010101; stroke:none;" d="M532 3L533 4L532 3z"/>
<path style="fill:#0140c2; stroke:none;" d="M862 4L863 5L862 4M495 5L496 6L495 5M879 5L880 6L879 5z"/>
<path style="fill:#010101; stroke:none;" d="M909 7L910 8L909 7z"/>
<path style="fill:#0140c2; stroke:none;" d="M449 8L450 9L449 8M922 8L923 9L922 8z"/>
<path style="fill:#010101; stroke:none;" d="M935 9L936 10L935 9z"/>
<path style="fill:#0140c2; stroke:none;" d="M423 10L424 11L423 10z"/>
<path style="fill:#010101; stroke:none;" d="M958 11L959 12L958 11M399 12L400 13L399 12z"/>
<path style="fill:#0140c2; stroke:none;" d="M388 13L389 14L388 13z"/>
<path style="fill:#010181; stroke:none;" d="M979 13L980 14L979 13z"/>
<path style="fill:#0140c2; stroke:none;" d="M377 14L378 15L377 14z"/>
<path style="fill:#010181; stroke:none;" d="M989 14L990 15L989 14z"/>
<path style="fill:#010101; stroke:none;" d="M1008 16L1009 17L1008 16M1017 17L1018 18L1017 17z"/>
<path style="fill:#0140c2; stroke:none;" d="M337 18L338 19L337 18M1034 19L1035 20L1034 19M1042 20L1043 21L1042 20M1058 22L1059 23L1058 22z"/>
<path style="fill:#010101; stroke:none;" d="M292 23L293 24L292 23z"/>
<path style="fill:#0140c2; stroke:none;" d="M284 24L285 25L284 24M260 27L261 28L260 27z"/>
<path style="fill:#010101; stroke:none;" d="M252 28L253 29L252 28z"/>
<path style="fill:#0140c2; stroke:none;" d="M1108 29L1109 30L1108 29z"/>
<path style="fill:#010181; stroke:none;" d="M237 30L238 31L237 30z"/>
<path style="fill:#010101; stroke:none;" d="M1115 30L1116 31L1115 30z"/>
<path style="fill:#0140c2; stroke:none;" d="M1121 31L1122 32L1121 31z"/>
<path style="fill:#010181; stroke:none;" d="M1134 33L1135 34L1134 33z"/>
<path style="fill:#0140c2; stroke:none;" d="M1140 34L1141 35L1140 34M1146 35L1147 36L1146 35M1152 36L1153 37L1152 36M188 37L189 38L188 37z"/>
<path style="fill:#010101; stroke:none;" d="M1158 37L1159 38L1158 37z"/>
<path style="fill:#010181; stroke:none;" d="M1175 40L1176 41L1175 40z"/>
<path style="fill:#0140c2; stroke:none;" d="M162 41L163 42L162 41z"/>
<path style="fill:#010101; stroke:none;" d="M1186 42L1187 43L1186 42z"/>
<path style="fill:#010181; stroke:none;" d="M137 45L138 46L137 45z"/>
<path style="fill:#010101; stroke:none;" d="M131 46L132 47L131 46z"/>
<path style="fill:#010181; stroke:none;" d="M1207 46L1208 47L1207 46z"/>
<path style="fill:#0140c2; stroke:none;" d="M1212 47L1213 48L1212 47M1217 48L1218 49L1217 48M1222 49L1223 50L1222 49z"/>
<path style="fill:#010181; stroke:none;" d="M1227 50L1228 51L1227 50z"/>
<path style="fill:#0140c2; stroke:none;" d="M102 51L103 52L102 51M1246 54L1247 55L1246 54M1255 56L1256 57L1255 56M69 57L70 58L69 57z"/>
<path style="fill:#010101; stroke:none;" d="M53 60L54 61L53 60z"/>
<path style="fill:#0140c2; stroke:none;" d="M1273 60L1274 61L1273 60M48 61L49 62L48 61M43 62L44 63L43 62M1286 63L1287 64L1286 63z"/>
<path style="fill:#010101; stroke:none;" d="M39 68L40 69L39 68M44 72L45 73L44 72z"/>
<path style="fill:#010181; stroke:none;" d="M49 76L50 77L49 76z"/>
<path style="fill:#0140c2; stroke:none;" d="M1338 76L1339 77L1338 76z"/>
<path style="fill:#2165d1; stroke:none;" d="M3 78C3 140.362 2 202.609 2 265C2 281.358 1.00105 297.709 1 314C0.999646 319.501 -0.625898 328.154 2.60339 332.911C11.3945 345.86 30.7904 357.154 43 367C69.9428 388.728 96.3172 411.203 123 433.25C214.457 508.817 305.815 584.519 397 660.414C616.603 843.193 836.035 1026.3 1057 1207.42C1122.29 1260.94 1187.18 1315 1252 1369.08C1272.3 1386.01 1292.62 1402.91 1313 1419.75C1322.52 1427.62 1332.7 1438.97 1344 1444C1344 1382.98 1346 1322.04 1346 1261C1346 1244.67 1347 1228.38 1347 1212C1347 1206.33 1348.72 1197.2 1345.97 1192.09C1339.96 1180.88 1321.74 1171.04 1312 1162.92C1285.4 1140.73 1258.79 1118.54 1232 1096.58C1141.57 1022.45 1051.87 947.387 962 872.586C747.332 693.915 532.305 515.649 317 337.75C248.233 280.931 179.602 223.937 111 166.919L42 109.586C29.377 99.0801 16.9225 86.7068 3 78z"/>
<path style="fill:#010181; stroke:none;" d="M6 80L7 81L6 80z"/>
<path style="fill:#0140c2; stroke:none;" d="M54 80L55 81L54 80M59 84L60 85L59 84M12 85L13 86L12 85M64 88L65 89L64 88M18 90L19 91L18 90M69 92L70 93L69 92M24 95L25 96L24 95z"/>
<path style="fill:#010101; stroke:none;" d="M29 99L30 100L29 99M80 101L81 102L80 101M35 104L36 105L35 104M85 105L86 106L85 105z"/>
<path style="fill:#010181; stroke:none;" d="M41 109L42 110L41 109M90 109L91 110L90 109z"/>
<path style="fill:#0140c2; stroke:none;" d="M95 113L96 114L95 113z"/>
<path style="fill:#010181; stroke:none;" d="M47 114L48 115L47 114z"/>
<path style="fill:#0140c2; stroke:none;" d="M100 117L101 118L100 117M53 119L54 120L53 119M105 121L106 122L105 121M59 124L60 125L59 124M110 125L111 126L110 125M65 129L66 130L65 129M115 129L116 130L115 129M71 134L72 135L71 134z"/>
<path style="fill:#010101; stroke:none;" d="M76 138L77 139L76 138M126 138L127 139L126 138M131 142L132 143L131 142M82 143L83 144L82 143z"/>
<path style="fill:#010181; stroke:none;" d="M136 146L137 147L136 146z"/>
<path style="fill:#010101; stroke:none;" d="M2 147L3 148L2 147z"/>
<path style="fill:#0140c2; stroke:none;" d="M2 148L2 151L3 151L2 148z"/>
<path style="fill:#010181; stroke:none;" d="M88 148L89 149L88 148z"/>
<path style="fill:#0140c2; stroke:none;" d="M141 150L142 151L141 150M94 153L95 154L94 153M146 154L147 155L146 154M100 158L101 159L100 158M151 158L152 159L151 158M156 162L157 163L156 162M106 163L107 164L106 163M112 168L113 169L112 168z"/>
<path style="fill:#010101; stroke:none;" d="M117 172L118 173L117 172M172 175L173 176L172 175M123 177L124 178L123 177z"/>
<path style="fill:#010181; stroke:none;" d="M177 179L178 180L177 179M129 182L130 183L129 182z"/>
<path style="fill:#0140c2; stroke:none;" d="M182 183L183 184L182 183M135 187L136 188L135 187M187 187L188 188L187 187M192 191L193 192L192 191M141 192L142 193L141 192M197 195L198 196L197 195M147 197L148 198L147 197M202 199L203 200L202 199M153 202L154 203L153 202z"/>
<path style="fill:#010101; stroke:none;" d="M158 206L159 207L158 206M213 208L214 209L213 208M164 211L165 212L164 211M218 212L219 213L218 212z"/>
<path style="fill:#010181; stroke:none;" d="M661 215L662 216L661 215M757 215L758 216L757 215z"/>
<path style="fill:#0140c2; stroke:none;" d="M758 215L759 216L758 215z"/>
<path style="fill:#010181; stroke:none;" d="M170 216L171 217L170 216M223 216L224 217L223 216z"/>
<path style="fill:#010101; stroke:none;" d="M621 216L622 217L621 216M795 216L796 217L795 216z"/>
<path style="fill:#0140c2; stroke:none;" d="M820 217L821 218L820 217M571 218L572 219L571 218M840 218L841 219L840 218M857 219L858 220L857 219M228 220L229 221L228 220M534 220L535 221L534 220M872 220L873 221L872 220M176 221L177 222L176 221z"/>
<path style="fill:#010101; stroke:none;" d="M504 222L505 223L504 222z"/>
<path style="fill:#0140c2; stroke:none;" d="M898 222L899 223L898 222M490 223L491 224L490 223M233 224L234 225L233 224M477 224L478 225L477 224z"/>
<path style="fill:#010101; stroke:none;" d="M920 224L921 225L920 224z"/>
<path style="fill:#0140c2; stroke:none;" d="M182 226L183 227L182 226z"/>
<path style="fill:#010181; stroke:none;" d="M453 226L454 227L453 226z"/>
<path style="fill:#0140c2; stroke:none;" d="M940 226L941 227L940 226M949 227L950 228L949 227M238 228L239 229L238 228z"/>
<path style="fill:#010101; stroke:none;" d="M431 228L432 229L431 228z"/>
<path style="fill:#0140c2; stroke:none;" d="M410 230L411 231L410 230M188 231L189 232L188 231z"/>
<path style="fill:#010101; stroke:none;" d="M981 231L982 232L981 231z"/>
<path style="fill:#0140c2; stroke:none;" d="M243 232L244 233L243 232z"/>
<path style="fill:#010181; stroke:none;" d="M391 232L392 233L391 232z"/>
<path style="fill:#010101; stroke:none;" d="M382 233L383 234L382 233M373 234L374 235L373 234z"/>
<path style="fill:#0140c2; stroke:none;" d="M364 235L365 236L364 235z"/>
<path style="fill:#010181; stroke:none;" d="M1009 235L1010 236L1009 235z"/>
<path style="fill:#0140c2; stroke:none;" d="M194 236L195 237L194 236M347 237L348 238L347 237M1022 237L1023 238L1022 237M339 238L340 239L339 238M331 239L332 240L331 239z"/>
<path style="fill:#010101; stroke:none;" d="M199 240L200 241L199 240M254 241L255 242L254 241z"/>
<path style="fill:#010181; stroke:none;" d="M316 241L317 242L316 241z"/>
<path style="fill:#0140c2; stroke:none;" d="M1045 241L1046 242L1045 241M294 244L295 245L294 244z"/>
<path style="fill:#010101; stroke:none;" d="M205 245L206 246L205 245M259 245L260 246L259 245z"/>
<path style="fill:#0140c2; stroke:none;" d="M287 245L288 246L287 245M1066 245L1067 246L1066 245M280 246L281 247L280 246z"/>
<path style="fill:#010101; stroke:none;" d="M267 248L268 249L267 248z"/>
<path style="fill:#0140c2; stroke:none;" d="M1085 249L1086 250L1085 249z"/>
<path style="fill:#010181; stroke:none;" d="M211 250L212 251L211 250z"/>
<path style="fill:#0140c2; stroke:none;" d="M1094 251L1095 252L1094 251M217 255L218 256L217 255M1111 255L1112 256L1111 255M645 256L646 257L645 256z"/>
<path style="fill:#2165d1; stroke:none;" d="M482 265C491.072 280.923 504.049 295.196 514.849 310C536.584 339.796 558.498 369.495 580.627 399C589.091 410.285 597.535 421.603 605.849 433C608.856 437.123 612.246 444.362 617.174 446.397C622.309 448.517 630.506 447 636 447L678 447C683.879 447 693.624 448.845 698.907 445.972C703.623 443.407 707 436.315 709.974 432C717.571 420.979 725.094 409.904 732.859 399C754.965 367.955 776.395 336.38 798.026 305C807.477 291.288 822.754 275.823 828 260C797.736 259.98 767.28 256.756 737 256.015C684.295 254.724 631.531 256.66 579 258.961C547.917 260.322 512.311 257.783 482 265z"/>
<path style="fill:#0140c2; stroke:none;" d="M742 256L743 257L742 256z"/>
<path style="fill:#010101; stroke:none;" d="M743 256L744 257L743 256z"/>
<path style="fill:#0140c2; stroke:none;" d="M1115 256L1116 257L1115 256z"/>
<path style="fill:#010101; stroke:none;" d="M608 257L609 258L608 257z"/>
<path style="fill:#0140c2; stroke:none;" d="M776 257L777 258L776 257M583 258L584 259L583 258M799 258L800 259L799 258M562 259L563 260L562 259z"/>
<path style="fill:#010101; stroke:none;" d="M818 259L819 260L818 259z"/>
<path style="fill:#0140c2; stroke:none;" d="M223 260L224 261L223 260z"/>
<path style="fill:#010101; stroke:none;" d="M543 260L544 261L543 260z"/>
<path style="fill:#0140c2; stroke:none;" d="M1134 261L1135 262L1134 261z"/>
<path style="fill:#010101; stroke:none;" d="M511 262L512 263L511 262z"/>
<path style="fill:#010181; stroke:none;" d="M497 263L498 264L497 263z"/>
<path style="fill:#0140c2; stroke:none;" d="M229 265L230 266L229 265M824 266L825 267L824 266M1155 267L1156 268L1155 267z"/>
<path style="fill:#010101; stroke:none;" d="M822 269L823 270L822 269z"/>
<path style="fill:#0140c2; stroke:none;" d="M235 270L236 271L235 270z"/>
<path style="fill:#010101; stroke:none;" d="M486 271L487 272L486 271z"/>
<path style="fill:#0140c2; stroke:none;" d="M1168 271L1169 272L1168 271z"/>
<path style="fill:#010181; stroke:none;" d="M1171 272L1172 273L1171 272z"/>
<path style="fill:#010101; stroke:none;" d="M1174 273L1175 274L1174 273M240 274L241 275L240 274z"/>
<path style="fill:#010181; stroke:none;" d="M489 275L490 276L489 275z"/>
<path style="fill:#010101; stroke:none;" d="M1180 275L1181 276L1180 275z"/>
<path style="fill:#010181; stroke:none;" d="M1183 276L1184 277L1183 276z"/>
<path style="fill:#0140c2; stroke:none;" d="M1186 277L1187 278L1186 277M1189 278L1190 279L1189 278z"/>
<path style="fill:#010101; stroke:none;" d="M246 279L247 280L246 279z"/>
<path style="fill:#0140c2; stroke:none;" d="M492 279L493 280L492 279M815 279L816 280L815 279M1200 282L1201 283L1200 282M495 283L496 284L495 283z"/>
<path style="fill:#010181; stroke:none;" d="M252 284L253 285L252 284z"/>
<path style="fill:#0140c2; stroke:none;" d="M1208 285L1209 286L1208 285M1213 287L1214 288L1213 287M258 289L259 290L258 289M808 289L809 290L808 289M1218 289L1219 290L1218 289M1223 291L1224 292L1223 291z"/>
<path style="fill:#010181; stroke:none;" d="M806 292L807 293L806 292z"/>
<path style="fill:#0140c2; stroke:none;" d="M264 294L265 295L264 294M1230 294L1231 295L1230 294z"/>
<path style="fill:#010101; stroke:none;" d="M506 298L507 299L506 298z"/>
<path style="fill:#0140c2; stroke:none;" d="M270 299L271 300L270 299z"/>
<path style="fill:#010101; stroke:none;" d="M1 300L2 301L1 300z"/>
<path style="fill:#0140c2; stroke:none;" d="M1 301L1 304L2 304L1 301M509 302L510 303L509 302M799 302L800 303L799 302M1243 303L1244 304L1243 303M276 304L277 305L276 304z"/>
<path style="fill:#010101; stroke:none;" d="M797 305L798 306L797 305z"/>
<path style="fill:#0140c2; stroke:none;" d="M512 306L513 307L512 306z"/>
<path style="fill:#010101; stroke:none;" d="M281 308L282 309L281 308z"/>
<path style="fill:#0140c2; stroke:none;" d="M515 310L516 311L515 310z"/>
<path style="fill:#010181; stroke:none;" d="M1250 311L1251 312L1250 311z"/>
<path style="fill:#0140c2; stroke:none;" d="M1251 312L1252 313L1251 312z"/>
<path style="fill:#010101; stroke:none;" d="M287 313L288 314L287 313z"/>
<path style="fill:#0140c2; stroke:none;" d="M790 315L791 316L790 315z"/>
<path style="fill:#010181; stroke:none;" d="M293 318L294 319L293 318z"/>
<path style="fill:#010101; stroke:none;" d="M788 318L789 319L788 318z"/>
<path style="fill:#0140c2; stroke:none;" d="M1258 320L1259 321L1258 320z"/>
<path style="fill:#010101; stroke:none;" d="M523 321L524 322L523 321z"/>
<path style="fill:#0140c2; stroke:none;" d="M299 323L300 324L299 323z"/>
<path style="fill:#010181; stroke:none;" d="M526 325L527 326L526 325z"/>
<path style="fill:#0140c2; stroke:none;" d="M783 325L784 326L783 325M305 328L306 329L305 328z"/>
<path style="fill:#010181; stroke:none;" d="M781 328L782 329L781 328M1265 328L1266 329L1265 328z"/>
<path style="fill:#0140c2; stroke:none;" d="M529 329L530 330L529 329M311 333L312 334L311 333M532 333L533 334L532 333z"/>
<path style="fill:#010101; stroke:none;" d="M6 336L7 337L6 336M1272 336L1273 337L1272 336z"/>
<path style="fill:#0140c2; stroke:none;" d="M1273 337L1274 338L1273 337M317 338L318 339L317 338M774 338L775 339L774 338M11 340L12 341L11 340z"/>
<path style="fill:#010101; stroke:none;" d="M772 341L773 342L772 341M322 342L323 343L322 342z"/>
<path style="fill:#0140c2; stroke:none;" d="M17 345L18 346L17 345M1280 345L1281 346L1280 345z"/>
<path style="fill:#010101; stroke:none;" d="M328 347L329 348L328 347M543 348L544 349L543 348z"/>
<path style="fill:#0140c2; stroke:none;" d="M23 350L24 351L23 350M765 351L766 352L765 351z"/>
<path style="fill:#010181; stroke:none;" d="M334 352L335 353L334 352M546 352L547 353L546 352z"/>
<path style="fill:#010101; stroke:none;" d="M1287 353L1288 354L1287 353M763 354L764 355L763 354z"/>
<path style="fill:#0140c2; stroke:none;" d="M1288 354L1289 355L1288 354M29 355L30 356L29 355M549 356L550 357L549 356M340 357L341 358L340 357z"/>
<path style="fill:#010181; stroke:none;" d="M35 360L36 361L35 360z"/>
<path style="fill:#0140c2; stroke:none;" d="M552 360L553 361L552 360M346 362L347 363L346 362M1295 362L1296 363L1295 362M756 364L757 365L756 364z"/>
<path style="fill:#010101; stroke:none;" d="M41 365L42 366L41 365z"/>
<path style="fill:#0140c2; stroke:none;" d="M352 367L353 368L352 367M46 369L47 370L46 369z"/>
<path style="fill:#010101; stroke:none;" d="M1302 370L1303 371L1302 370M560 371L561 372L560 371z"/>
<path style="fill:#0140c2; stroke:none;" d="M1303 371L1304 372L1303 371M358 372L359 373L358 372M52 374L53 375L52 374M749 374L750 375L749 374z"/>
<path style="fill:#010181; stroke:none;" d="M563 375L564 376L563 375z"/>
<path style="fill:#010101; stroke:none;" d="M363 376L364 377L363 376z"/>
<path style="fill:#010181; stroke:none;" d="M747 377L748 378L747 377z"/>
<path style="fill:#0140c2; stroke:none;" d="M58 379L59 380L58 379M566 379L567 380L566 379M1310 379L1311 380L1310 379z"/>
<path style="fill:#010101; stroke:none;" d="M369 381L370 382L369 381z"/>
<path style="fill:#0140c2; stroke:none;" d="M569 383L570 384L569 383M64 384L65 385L64 384z"/>
<path style="fill:#010181; stroke:none;" d="M375 386L376 387L375 386z"/>
<path style="fill:#0140c2; stroke:none;" d="M740 387L741 388L740 387z"/>
<path style="fill:#010181; stroke:none;" d="M1317 387L1318 388L1317 387M70 389L71 390L70 389z"/>
<path style="fill:#010101; stroke:none;" d="M738 390L739 391L738 390z"/>
<path style="fill:#0140c2; stroke:none;" d="M381 391L382 392L381 391z"/>
<path style="fill:#010101; stroke:none;" d="M76 394L77 395L76 394M1324 395L1325 396L1324 395z"/>
<path style="fill:#0140c2; stroke:none;" d="M387 396L388 397L387 396M1325 396L1326 397L1325 396z"/>
<path style="fill:#010101; stroke:none;" d="M580 398L581 399L580 398M82 399L83 400L82 399z"/>
<path style="fill:#0140c2; stroke:none;" d="M731 400L732 401L731 400M393 401L394 402L393 401z"/>
<path style="fill:#010181; stroke:none;" d="M583 402L584 403L583 402z"/>
<path style="fill:#0140c2; stroke:none;" d="M87 403L88 404L87 403z"/>
<path style="fill:#010101; stroke:none;" d="M729 403L730 404L729 403z"/>
<path style="fill:#0140c2; stroke:none;" d="M1332 404L1333 405L1332 404M399 406L400 407L399 406M586 406L587 407L586 406M93 408L94 409L93 408z"/>
<path style="fill:#010101; stroke:none;" d="M404 410L405 411L404 410z"/>
<path style="fill:#0140c2; stroke:none;" d="M589 410L590 411L589 410M724 410L725 411L724 410M99 413L100 414L99 413z"/>
<path style="fill:#010181; stroke:none;" d="M722 413L723 414L722 413z"/>
<path style="fill:#010101; stroke:none;" d="M410 415L411 416L410 415z"/>
<path style="fill:#010181; stroke:none;" d="M105 418L106 419L105 418M416 420L417 421L416 420z"/>
<path style="fill:#010101; stroke:none;" d="M597 421L598 422L597 421M111 423L112 424L111 423z"/>
<path style="fill:#0140c2; stroke:none;" d="M715 423L716 424L715 423z"/>
<path style="fill:#010181; stroke:none;" d="M422 425L423 426L422 425M600 425L601 426L600 425z"/>
<path style="fill:#010101; stroke:none;" d="M713 426L714 427L713 426M117 428L118 429L117 428z"/>
<path style="fill:#0140c2; stroke:none;" d="M603 429L604 430L603 429M428 430L429 431L428 430M122 432L123 433L122 432M606 433L607 434L606 433M434 435L435 436L434 435M706 436L707 437L706 436M128 437L129 438L128 437z"/>
<path style="fill:#010101; stroke:none;" d="M704 439L705 440L704 439z"/>
<path style="fill:#0140c2; stroke:none;" d="M440 440L441 441L440 440M134 442L135 443L134 442M699 446L700 447L699 446M140 447L141 448L140 447z"/>
<path style="fill:#010101; stroke:none;" d="M451 449L452 450L451 449z"/>
<path style="fill:#010181; stroke:none;" d="M146 452L147 453L146 452M457 454L458 455L457 454z"/>
<path style="fill:#010101; stroke:none;" d="M152 457L153 458L152 457z"/>
<path style="fill:#010181; stroke:none;" d="M463 459L464 460L463 459z"/>
<path style="fill:#010101; stroke:none;" d="M158 462L159 463L158 462z"/>
<path style="fill:#0140c2; stroke:none;" d="M469 464L470 465L469 464M163 466L164 467L163 466M475 469L476 470L475 469M169 471L170 472L169 471M481 474L482 475L481 474z"/>
<path style="fill:#010101; stroke:none;" d="M652 474L653 475L652 474z"/>
<path style="fill:#2165d1; stroke:none;" d="M586 518L586 519C616.224 546.755 651.622 570.198 684 595.424C696.142 604.884 712.129 622.949 727 627C727 595.592 732.382 562.396 721.921 532C707.608 490.408 662.862 459.416 622 485.436C608.339 494.135 597.367 506.633 586 518z"/>
<path style="fill:#0140c2; stroke:none;" d="M655 474L656 475L655 474M644 475L645 476L644 475M175 476L176 477L175 476M667 476L668 477L667 476z"/>
<path style="fill:#010101; stroke:none;" d="M637 477L638 478L637 477z"/>
<path style="fill:#0140c2; stroke:none;" d="M670 477L671 478L670 477M487 479L488 480L487 479z"/>
<path style="fill:#010181; stroke:none;" d="M181 481L182 482L181 481M680 482L681 483L680 482z"/>
<path style="fill:#010101; stroke:none;" d="M492 483L493 484L492 483z"/>
<path style="fill:#0140c2; stroke:none;" d="M625 483L626 484L625 483z"/>
<path style="fill:#010101; stroke:none;" d="M187 486L188 487L187 486M498 488L499 489L498 488z"/>
<path style="fill:#0140c2; stroke:none;" d="M689 488L690 489L689 488z"/>
<path style="fill:#010101; stroke:none;" d="M193 491L194 492L193 491M693 491L694 492L693 491z"/>
<path style="fill:#010181; stroke:none;" d="M504 493L505 494L504 493M610 494L611 495L610 494z"/>
<path style="fill:#0140c2; stroke:none;" d="M198 495L199 496L198 495M510 498L511 499L510 498M204 500L205 501L204 500M516 503L517 504L516 503M706 504L707 505L706 504M210 505L211 506L210 505M522 508L523 509L522 508M216 510L217 511L216 510M528 513L529 514L528 513z"/>
<path style="fill:#010181; stroke:none;" d="M222 515L223 516L222 515z"/>
<path style="fill:#010101; stroke:none;" d="M533 517L534 518L533 517z"/>
<path style="fill:#0140c2; stroke:none;" d="M586 519L587 520L586 519z"/>
<path style="fill:#010181; stroke:none;" d="M716 519L717 520L716 519z"/>
<path style="fill:#010101; stroke:none;" d="M228 520L229 521L228 520z"/>
<path style="fill:#010181; stroke:none;" d="M717 521L718 522L717 521z"/>
<path style="fill:#010101; stroke:none;" d="M539 522L540 523L539 522z"/>
<path style="fill:#0140c2; stroke:none;" d="M233 524L234 525L233 524z"/>
<path style="fill:#010181; stroke:none;" d="M595 526L596 527L595 526M545 527L546 528L545 527z"/>
<path style="fill:#0140c2; stroke:none;" d="M720 528L721 529L720 528M239 529L240 530L239 529M551 532L552 533L551 532z"/>
<path style="fill:#010181; stroke:none;" d="M604 533L605 534L604 533z"/>
<path style="fill:#0140c2; stroke:none;" d="M245 534L246 535L245 534M608 536L609 537L608 536M557 537L558 538L557 537M723 537L724 538L723 537M251 539L252 540L251 539z"/>
<path style="fill:#010101; stroke:none;" d="M613 540L614 541L613 540z"/>
<path style="fill:#0140c2; stroke:none;" d="M563 542L564 543L563 542M617 543L618 544L617 543z"/>
<path style="fill:#010181; stroke:none;" d="M257 544L258 545L257 544z"/>
<path style="fill:#010101; stroke:none;" d="M725 545L726 546L725 545z"/>
<path style="fill:#0140c2; stroke:none;" d="M569 547L570 548L569 547z"/>
<path style="fill:#010101; stroke:none;" d="M622 547L623 548L622 547M263 549L264 550L263 549z"/>
<path style="fill:#0140c2; stroke:none;" d="M626 550L627 551L626 550z"/>
<path style="fill:#010101; stroke:none;" d="M574 551L575 552L574 551M269 554L270 555L269 554M631 554L632 555L631 554M580 556L581 557L580 556z"/>
<path style="fill:#0140c2; stroke:none;" d="M635 557L636 558L635 557M274 558L275 559L274 558z"/>
<path style="fill:#010181; stroke:none;" d="M586 561L587 562L586 561z"/>
<path style="fill:#0140c2; stroke:none;" d="M280 563L281 564L280 563M644 564L645 565L644 564M592 566L593 567L592 566M286 568L287 569L286 568M598 571L599 572L598 571M653 571L654 572L653 571z"/>
<path style="fill:#010181; stroke:none;" d="M292 573L293 574L292 573z"/>
<path style="fill:#0140c2; stroke:none;" d="M604 576L605 577L604 576z"/>
<path style="fill:#010101; stroke:none;" d="M298 578L299 579L298 578z"/>
<path style="fill:#010181; stroke:none;" d="M662 578L663 579L662 578z"/>
<path style="fill:#0140c2; stroke:none;" d="M610 581L611 582L610 581z"/>
<path style="fill:#010101; stroke:none;" d="M304 583L305 584L304 583M615 585L616 586L615 585M671 585L672 586L671 585z"/>
<path style="fill:#0140c2; stroke:none;" d="M309 587L310 588L309 587M675 588L676 589L675 588z"/>
<path style="fill:#010101; stroke:none;" d="M621 590L622 591L621 590z"/>
<path style="fill:#0140c2; stroke:none;" d="M315 592L316 593L315 592z"/>
<path style="fill:#010101; stroke:none;" d="M680 592L681 593L680 592z"/>
<path style="fill:#010181; stroke:none;" d="M627 595L628 596L627 595z"/>
<path style="fill:#0140c2; stroke:none;" d="M684 595L685 596L684 595M321 597L322 598L321 597z"/>
<path style="fill:#010101; stroke:none;" d="M689 599L690 600L689 599z"/>
<path style="fill:#0140c2; stroke:none;" d="M633 600L634 601L633 600M327 602L328 603L327 602M693 602L694 603L693 602M727 604L728 605L727 604M639 605L640 606L639 605z"/>
<path style="fill:#010181; stroke:none;" d="M333 607L334 608L333 607z"/>
<path style="fill:#0140c2; stroke:none;" d="M702 609L703 610L702 609M645 610L646 611L645 610z"/>
<path style="fill:#010101; stroke:none;" d="M339 612L340 613L339 612z"/>
<path style="fill:#0140c2; stroke:none;" d="M651 615L652 616L651 615M711 616L712 617L711 616z"/>
<path style="fill:#010101; stroke:none;" d="M345 617L346 618L345 617M656 619L657 620L656 619z"/>
<path style="fill:#0140c2; stroke:none;" d="M350 621L351 622L350 621z"/>
<path style="fill:#010181; stroke:none;" d="M720 623L721 624L720 623z"/>
<path style="fill:#010101; stroke:none;" d="M662 624L663 625L662 624z"/>
<path style="fill:#0140c2; stroke:none;" d="M356 626L357 627L356 626z"/>
<path style="fill:#010101; stroke:none;" d="M726 627L727 628L726 627z"/>
<path style="fill:#010181; stroke:none;" d="M668 629L669 630L668 629z"/>
<path style="fill:#0140c2; stroke:none;" d="M362 631L363 632L362 631M674 634L675 635L674 634z"/>
<path style="fill:#010181; stroke:none;" d="M368 636L369 637L368 636z"/>
<path style="fill:#0140c2; stroke:none;" d="M680 639L681 640L680 639z"/>
<path style="fill:#010101; stroke:none;" d="M374 641L375 642L374 641z"/>
<path style="fill:#0140c2; stroke:none;" d="M686 644L687 645L686 644z"/>
<path style="fill:#010101; stroke:none;" d="M380 646L381 647L380 646z"/>
<path style="fill:#0140c2; stroke:none;" d="M692 649L693 650L692 649M385 650L386 651L385 650z"/>
<path style="fill:#010101; stroke:none;" d="M697 653L698 654L697 653z"/>
<path style="fill:#0140c2; stroke:none;" d="M391 655L392 656L391 655z"/>
<path style="fill:#010101; stroke:none;" d="M703 658L704 659L703 658z"/>
<path style="fill:#0140c2; stroke:none;" d="M397 660L398 661L397 660z"/>
<path style="fill:#010181; stroke:none;" d="M709 663L710 664L709 663M403 665L404 666L403 665z"/>
<path style="fill:#0140c2; stroke:none;" d="M715 668L716 669L715 668z"/>
<path style="fill:#010181; stroke:none;" d="M409 670L410 671L409 670z"/>
<path style="fill:#0140c2; stroke:none;" d="M721 673L722 674L721 673z"/>
<path style="fill:#2165d1; stroke:none;" d="M1592 888C1596.49 918.379 1622.68 940.666 1650 950.681C1705.26 970.934 1796.05 962.196 1813.99 895C1821.96 865.128 1813.67 828.326 1787 810.36C1767.8 797.426 1744.07 792.891 1722 787.373C1701.9 782.348 1668.55 778.828 1660.39 756C1653.07 735.529 1673.01 719.384 1691 715.808C1718.23 710.394 1745.76 719.012 1757 746L1806 734C1787.98 678.621 1717.12 662.007 1666 678.67C1641.93 686.516 1618.88 702.992 1610.75 728C1607.11 739.175 1606.42 750.377 1606.96 762C1607.3 769.229 1608.47 776.105 1610.75 783C1624.74 825.237 1669.37 831.695 1707 841.37C1723.16 845.525 1744.62 848.048 1755.61 862.001C1769.28 879.358 1761.07 901.465 1743 911.485C1723.47 922.313 1694.54 921.285 1674 913.91C1663.59 910.172 1653.96 903.386 1647.96 894C1645.5 890.152 1644.21 881.567 1640.44 879.067C1637.29 876.979 1630.37 879.683 1627 880.424C1615.34 882.985 1603.69 885.589 1592 888z"/>
<path style="fill:#010101; stroke:none;" d="M415 675L416 676L415 675z"/>
<path style="fill:#2165d1; stroke:none;" d="M1859 677L1859 956L1900 956L1900 716L1901 716C1904.02 736.457 1913.84 757.244 1919.97 777C1933.15 819.396 1946.31 861.877 1960.33 904C1964.42 916.266 1967.95 928.724 1972 941C1973.27 944.848 1974.31 952.429 1977.7 954.972C1981.72 957.984 1996.04 956.696 2000.89 955.852C2006.18 954.93 2007.31 946.328 2008.58 942C2012.79 927.595 2017.57 913.335 2022.03 899C2034.27 859.612 2046.79 820.288 2059.34 781C2065.94 760.341 2075.84 738.469 2079 717L2080 717L2080 956L2132 956L2132 677L2052 677L1996 854C1977.89 813.154 1967.75 767.401 1953.67 725C1950.02 714.026 1946.06 703.113 1942.86 692C1941.75 688.143 1940.68 680.562 1937.3 678.028C1932.99 674.799 1921.22 677 1916 677L1859 677M2255 677L2230 753L2183.33 894L2163 956L2207 956L2228 890L2335 890L2356 956L2411 956L2388.67 888L2342.67 751L2325 698L2317.3 678.028L2300 677L2255 677M2443 677L2443 956L2494 956L2494 842L2545 842L2563.35 843.603L2573.58 868L2596.58 929L2607.51 954.972L2623 956L2661 956L2631.8 882L2612 833C2670.45 813.099 2680.94 724.624 2628 691.816C2609.88 680.587 2590.44 679.776 2570 677.83C2528.3 673.861 2484.92 677 2443 677M2680 677L2680 721L2754 721L2754 956L2809 956L2809 721L2883 721L2883 677L2680 677z"/>
<path style="fill:#0140c2; stroke:none;" d="M727 678L728 679L727 678M420 679L421 680L420 679M733 683L734 684L733 683M426 684L427 685L426 684z"/>
<path style="fill:#010101; stroke:none;" d="M738 687L739 688L738 687z"/>
<path style="fill:#0140c2; stroke:none;" d="M432 689L433 690L432 689z"/>
<path style="fill:#010101; stroke:none;" d="M744 692L745 693L744 692z"/>
<path style="fill:#0140c2; stroke:none;" d="M438 694L439 695L438 694z"/>
<path style="fill:#010181; stroke:none;" d="M750 697L751 698L750 697M444 699L445 700L444 699z"/>
<path style="fill:#0140c2; stroke:none;" d="M756 702L757 703L756 702z"/>
<path style="fill:#010101; stroke:none;" d="M450 704L451 705L450 704z"/>
<path style="fill:#0140c2; stroke:none;" d="M762 707L763 708L762 707z"/>
<path style="fill:#010101; stroke:none;" d="M456 709L457 710L456 709z"/>
<path style="fill:#0140c2; stroke:none;" d="M768 712L769 713L768 712M461 713L462 714L461 713M774 717L775 718L774 717M467 718L468 719L467 718z"/>
<path style="fill:#ffffff; stroke:none;" d="M2494 718L2494 801C2523 801 2563.72 808.159 2590 793.687C2616.11 779.304 2615.03 738.235 2589 724.399C2576.38 717.69 2561.86 718 2548 718L2494 718z"/>
<path style="fill:#010101; stroke:none;" d="M779 721L780 722L779 721z"/>
<path style="fill:#0140c2; stroke:none;" d="M473 723L474 724L473 723z"/>
<path style="fill:#010101; stroke:none;" d="M785 726L786 727L785 726z"/>
<path style="fill:#010181; stroke:none;" d="M479 728L480 729L479 728z"/>
<path style="fill:#ffffff; stroke:none;" d="M2280 728C2271.56 768.767 2253.89 809.392 2241 849L2321 849C2312.1 821.648 2302.56 794.467 2294.03 767C2290.47 755.551 2287.97 737.039 2280 728z"/>
<path style="fill:#010181; stroke:none;" d="M791 731L792 732L791 731z"/>
<path style="fill:#010101; stroke:none;" d="M485 733L486 734L485 733z"/>
<path style="fill:#0140c2; stroke:none;" d="M797 736L798 737L797 736z"/>
<path style="fill:#010101; stroke:none;" d="M491 738L492 739L491 738z"/>
<path style="fill:#0140c2; stroke:none;" d="M803 741L804 742L803 741M496 742L497 743L496 742M809 746L810 747L809 746M502 747L503 748L502 747M815 751L816 752L815 751M508 752L509 753L508 752z"/>
<path style="fill:#010101; stroke:none;" d="M820 755L821 756L820 755z"/>
<path style="fill:#0140c2; stroke:none;" d="M514 757L515 758L514 757z"/>
<path style="fill:#010101; stroke:none;" d="M826 760L827 761L826 760z"/>
<path style="fill:#010181; stroke:none;" d="M520 762L521 763L520 762M832 765L833 766L832 765z"/>
<path style="fill:#010101; stroke:none;" d="M526 767L527 768L526 767z"/>
<path style="fill:#010181; stroke:none;" d="M838 770L839 771L838 770z"/>
<path style="fill:#0140c2; stroke:none;" d="M844 775L845 776L844 775M537 776L538 777L537 776M850 780L851 781L850 780M543 781L544 782L543 781M856 785L857 786L856 785M549 786L550 787L549 786z"/>
<path style="fill:#010181; stroke:none;" d="M555 791L556 792L555 791z"/>
<path style="fill:#010101; stroke:none;" d="M867 794L868 795L867 794M561 796L562 797L561 796M873 799L874 800L873 799M567 801L568 802L567 801z"/>
<path style="fill:#010181; stroke:none;" d="M879 804L880 805L879 804z"/>
<path style="fill:#0140c2; stroke:none;" d="M572 805L573 806L572 805M885 809L886 810L885 809M578 810L579 811L578 810M891 814L892 815L891 814M584 815L585 816L584 815M897 819L898 820L897 819z"/>
<path style="fill:#010181; stroke:none;" d="M590 820L591 821L590 820z"/>
<path style="fill:#0140c2; stroke:none;" d="M903 824L904 825L903 824z"/>
<path style="fill:#010181; stroke:none;" d="M596 825L597 826L596 825z"/>
<path style="fill:#2165d1; stroke:none;" d="M554 828C536.623 898.536 528.469 972.489 515.576 1044C487.886 1197.58 460.464 1351.24 433.75 1505C422.682 1568.71 410.403 1632.22 399.753 1696C396.855 1713.36 393.699 1730.68 390.576 1748C389.369 1754.69 385.786 1764.28 387.448 1771C389.702 1780.11 401.735 1789.97 407.728 1797C423.823 1815.87 439.567 1835.05 455.576 1854C507.244 1915.15 557.721 1977.37 610 2038C623.629 2053.81 636.885 2069.97 650.247 2086C656.137 2093.07 662.607 2104 671 2108L743.576 2021L869.08 1871L925.08 1804L949.258 1774L946.611 1751L937.611 1700L904.25 1512L846.424 1186L829.424 1090L821.683 1049.04L800 1029.75L749 987.611L617 878.75L576 844.919L554 828z"/>
<path style="fill:#010101; stroke:none;" d="M908 828L909 829L908 828M602 830L603 831L602 830M559 831L560 832L559 831M914 833L915 834L914 833z"/>
<path style="fill:#0140c2; stroke:none;" d="M607 834L608 835L607 834z"/>
<path style="fill:#010181; stroke:none;" d="M565 836L566 837L565 836M920 838L921 839L920 838z"/>
<path style="fill:#0140c2; stroke:none;" d="M613 839L614 840L613 839M551 841L552 842L551 841M571 841L572 842L571 841M926 843L927 844L926 843M619 844L620 845L619 844M577 846L578 847L577 846M932 848L933 849L932 848M625 849L626 850L625 849z"/>
<path style="fill:#010101; stroke:none;" d="M582 850L583 851L582 850z"/>
<path style="fill:#0140c2; stroke:none;" d="M938 853L939 854L938 853z"/>
<path style="fill:#010181; stroke:none;" d="M631 854L632 855L631 854M588 855L589 856L588 855z"/>
<path style="fill:#0140c2; stroke:none;" d="M548 858L549 859L548 858M944 858L945 859L944 858z"/>
<path style="fill:#010101; stroke:none;" d="M637 859L638 860L637 859z"/>
<path style="fill:#0140c2; stroke:none;" d="M594 860L595 861L594 860z"/>
<path style="fill:#010101; stroke:none;" d="M949 862L950 863L949 862M643 864L644 865L643 864z"/>
<path style="fill:#0140c2; stroke:none;" d="M600 865L601 866L600 865z"/>
<path style="fill:#010101; stroke:none;" d="M955 867L956 868L955 867z"/>
<path style="fill:#0140c2; stroke:none;" d="M648 868L649 869L648 868z"/>
<path style="fill:#010101; stroke:none;" d="M546 869L547 870L546 869M605 869L606 870L605 869z"/>
<path style="fill:#010181; stroke:none;" d="M961 872L962 873L961 872z"/>
<path style="fill:#0140c2; stroke:none;" d="M654 873L655 874L654 873M611 874L612 875L611 874M545 875L546 876L545 875M967 877L968 878L967 877M660 878L661 879L660 878M617 879L618 880L617 879M973 882L974 883L973 882z"/>
<path style="fill:#010101; stroke:none;" d="M622 883L623 884L622 883z"/>
<path style="fill:#010181; stroke:none;" d="M666 883L667 884L666 883M543 886L544 887L543 886z"/>
<path style="fill:#0140c2; stroke:none;" d="M979 887L980 888L979 887z"/>
<path style="fill:#010181; stroke:none;" d="M628 888L629 889L628 888z"/>
<path style="fill:#010101; stroke:none;" d="M672 888L673 889L672 888z"/>
<path style="fill:#0140c2; stroke:none;" d="M985 892L986 893L985 892M634 893L635 894L634 893z"/>
<path style="fill:#010101; stroke:none;" d="M678 893L679 894L678 893M990 896L991 897L990 896z"/>
<path style="fill:#0140c2; stroke:none;" d="M683 897L684 898L683 897M640 898L641 899L640 898z"/>
<path style="fill:#010101; stroke:none;" d="M996 901L997 902L996 901M645 902L646 903L645 902z"/>
<path style="fill:#0140c2; stroke:none;" d="M689 902L690 903L689 902M540 903L541 904L540 903z"/>
<path style="fill:#010181; stroke:none;" d="M1002 906L1003 907L1002 906z"/>
<path style="fill:#0140c2; stroke:none;" d="M651 907L652 908L651 907M695 907L696 908L695 907M1008 911L1009 912L1008 911M657 912L658 913L657 912M701 912L702 913L701 912M1014 916L1015 917L1014 916z"/>
<path style="fill:#010181; stroke:none;" d="M707 917L708 918L707 917z"/>
<path style="fill:#0140c2; stroke:none;" d="M537 920L538 921L537 920z"/>
<path style="fill:#010181; stroke:none;" d="M668 921L669 922L668 921z"/>
<path style="fill:#0140c2; stroke:none;" d="M1020 921L1021 922L1020 921z"/>
<path style="fill:#010101; stroke:none;" d="M713 922L714 923L713 922z"/>
<path style="fill:#0140c2; stroke:none;" d="M674 926L675 927L674 926M1026 926L1027 927L1026 926z"/>
<path style="fill:#010101; stroke:none;" d="M1031 930L1032 931L1031 930M535 931L536 932L535 931z"/>
<path style="fill:#0140c2; stroke:none;" d="M680 931L681 932L680 931M724 931L725 932L724 931z"/>
<path style="fill:#010101; stroke:none;" d="M685 935L686 936L685 935M1037 935L1038 936L1037 935z"/>
<path style="fill:#0140c2; stroke:none;" d="M730 936L731 937L730 936z"/>
<path style="fill:#010181; stroke:none;" d="M691 940L692 941L691 940M1043 940L1044 941L1043 940z"/>
<path style="fill:#0140c2; stroke:none;" d="M736 941L737 942L736 941M697 945L698 946L697 945M1049 945L1050 946L1049 945z"/>
<path style="fill:#010181; stroke:none;" d="M742 946L743 947L742 946M532 948L533 949L532 948z"/>
<path style="fill:#0140c2; stroke:none;" d="M703 950L704 951L703 950M1055 950L1056 951L1055 950z"/>
<path style="fill:#010101; stroke:none;" d="M748 951L749 952L748 951M708 954L709 955L708 954z"/>
<path style="fill:#0140c2; stroke:none;" d="M1061 955L1062 956L1061 955z"/>
<path style="fill:#010101; stroke:none;" d="M754 956L755 957L754 956z"/>
<path style="fill:#0140c2; stroke:none;" d="M714 959L715 960L714 959M759 960L760 961L759 960M1067 960L1068 961L1067 960M720 964L721 965L720 964z"/>
<path style="fill:#010101; stroke:none;" d="M1072 964L1073 965L1072 964z"/>
<path style="fill:#0140c2; stroke:none;" d="M529 965L530 966L529 965M765 965L766 966L765 965z"/>
<path style="fill:#010101; stroke:none;" d="M725 968L726 969L725 968M1078 969L1079 970L1078 969z"/>
<path style="fill:#0140c2; stroke:none;" d="M771 970L772 971L771 970z"/>
<path style="fill:#010181; stroke:none;" d="M731 973L732 974L731 973M1084 974L1085 975L1084 974M777 975L778 976L777 975z"/>
<path style="fill:#010101; stroke:none;" d="M527 976L528 977L527 976z"/>
<path style="fill:#0140c2; stroke:none;" d="M737 978L738 979L737 978M1090 979L1091 980L1090 979z"/>
<path style="fill:#010101; stroke:none;" d="M783 980L784 981L783 980z"/>
<path style="fill:#0140c2; stroke:none;" d="M526 982L527 983L526 982M743 983L744 984L743 983M1096 984L1097 985L1096 984z"/>
<path style="fill:#010101; stroke:none;" d="M789 985L790 986L789 985M748 987L749 988L748 987z"/>
<path style="fill:#0140c2; stroke:none;" d="M794 989L795 990L794 989M1102 989L1103 990L1102 989z"/>
<path style="fill:#010181; stroke:none;" d="M754 992L755 993L754 992z"/>
<path style="fill:#010101; stroke:none;" d="M524 993L525 994L524 993z"/>
<path style="fill:#0140c2; stroke:none;" d="M800 994L801 995L800 994M1108 994L1109 995L1108 994M760 997L761 998L760 997z"/>
<path style="fill:#010101; stroke:none;" d="M1113 998L1114 999L1113 998z"/>
<path style="fill:#0140c2; stroke:none;" d="M806 999L807 1000L806 999z"/>
<path style="fill:#010101; stroke:none;" d="M1119 1003L1120 1004L1119 1003z"/>
<path style="fill:#0140c2; stroke:none;" d="M812 1004L813 1005L812 1004z"/>
<path style="fill:#010101; stroke:none;" d="M771 1006L772 1007L771 1006z"/>
<path style="fill:#010181; stroke:none;" d="M1125 1008L1126 1009L1125 1008M818 1009L819 1010L818 1009z"/>
<path style="fill:#0140c2; stroke:none;" d="M521 1010L522 1011L521 1010M777 1011L778 1012L777 1011M1131 1013L1132 1014L1131 1013z"/>
<path style="fill:#010101; stroke:none;" d="M824 1014L825 1015L824 1014z"/>
<path style="fill:#0140c2; stroke:none;" d="M783 1016L784 1017L783 1016M1137 1018L1138 1019L1137 1018z"/>
<path style="fill:#010101; stroke:none;" d="M830 1019L831 1020L830 1019M788 1020L789 1021L788 1020z"/>
<path style="fill:#0140c2; stroke:none;" d="M835 1023L836 1024L835 1023M1143 1023L1144 1024L1143 1023z"/>
<path style="fill:#010181; stroke:none;" d="M794 1025L795 1026L794 1025z"/>
<path style="fill:#0140c2; stroke:none;" d="M518 1027L519 1028L518 1027M841 1028L842 1029L841 1028M1149 1028L1150 1029L1149 1028M800 1030L801 1031L800 1030z"/>
<path style="fill:#010101; stroke:none;" d="M1154 1032L1155 1033L1154 1032z"/>
<path style="fill:#0140c2; stroke:none;" d="M847 1033L848 1034L847 1033M806 1035L807 1036L806 1035z"/>
<path style="fill:#010101; stroke:none;" d="M1160 1037L1161 1038L1160 1037M516 1038L517 1039L516 1038z"/>
<path style="fill:#010181; stroke:none;" d="M853 1038L854 1039L853 1038z"/>
<path style="fill:#010101; stroke:none;" d="M811 1039L812 1040L811 1039z"/>
<path style="fill:#010181; stroke:none;" d="M1166 1042L1167 1043L1166 1042z"/>
<path style="fill:#010101; stroke:none;" d="M859 1043L860 1044L859 1043z"/>
<path style="fill:#0140c2; stroke:none;" d="M515 1044L516 1045L515 1044M817 1044L818 1045L817 1044M1172 1047L1173 1048L1172 1047z"/>
<path style="fill:#010101; stroke:none;" d="M865 1048L866 1049L865 1048z"/>
<path style="fill:#0140c2; stroke:none;" d="M870 1052L871 1053L870 1052M1178 1052L1179 1053L1178 1052z"/>
<path style="fill:#010181; stroke:none;" d="M513 1055L514 1056L513 1055z"/>
<path style="fill:#010101; stroke:none;" d="M823 1056L824 1057L823 1056z"/>
<path style="fill:#0140c2; stroke:none;" d="M876 1057L877 1058L876 1057M1184 1057L1185 1058L1184 1057M882 1062L883 1063L882 1062M1190 1062L1191 1063L1190 1062z"/>
<path style="fill:#010101; stroke:none;" d="M1195 1066L1196 1067L1195 1066z"/>
<path style="fill:#0140c2; stroke:none;" d="M888 1067L889 1068L888 1067z"/>
<path style="fill:#010101; stroke:none;" d="M1201 1071L1202 1072L1201 1071z"/>
<path style="fill:#0140c2; stroke:none;" d="M510 1072L511 1073L510 1072z"/>
<path style="fill:#010181; stroke:none;" d="M894 1072L895 1073L894 1072M826 1073L827 1074L826 1073M1207 1076L1208 1077L1207 1076z"/>
<path style="fill:#010101; stroke:none;" d="M900 1077L901 1078L900 1077z"/>
<path style="fill:#010181; stroke:none;" d="M1213 1081L1214 1082L1213 1081z"/>
<path style="fill:#0140c2; stroke:none;" d="M911 1086L912 1087L911 1086M1219 1086L1220 1087L1219 1086M507 1089L508 1090L507 1089M829 1090L830 1091L829 1090M917 1091L918 1092L917 1091M1225 1091L1226 1092L1225 1091M923 1096L924 1097L923 1096M1231 1096L1232 1097L1231 1096z"/>
<path style="fill:#010101; stroke:none;" d="M505 1100L506 1101L505 1100M1236 1100L1237 1101L1236 1100z"/>
<path style="fill:#010181; stroke:none;" d="M929 1101L930 1102L929 1101z"/>
<path style="fill:#010101; stroke:none;" d="M1242 1105L1243 1106L1242 1105z"/>
<path style="fill:#0140c2; stroke:none;" d="M504 1106L505 1107L504 1106z"/>
<path style="fill:#010101; stroke:none;" d="M935 1106L936 1107L935 1106z"/>
<path style="fill:#0140c2; stroke:none;" d="M832 1107L833 1108L832 1107z"/>
<path style="fill:#010181; stroke:none;" d="M1248 1110L1249 1111L1248 1110z"/>
<path style="fill:#010101; stroke:none;" d="M941 1111L942 1112L941 1111z"/>
<path style="fill:#0140c2; stroke:none;" d="M946 1115L947 1116L946 1115z"/>
<path style="fill:#010181; stroke:none;" d="M1254 1115L1255 1116L1254 1115M502 1117L503 1118L502 1117z"/>
<path style="fill:#010101; stroke:none;" d="M834 1118L835 1119L834 1118z"/>
<path style="fill:#0140c2; stroke:none;" d="M952 1120L953 1121L952 1120M1260 1120L1261 1121L1260 1120M835 1124L836 1125L835 1124M958 1125L959 1126L958 1125M1266 1125L1267 1126L1266 1125z"/>
<path style="fill:#010181; stroke:none;" d="M964 1130L965 1131L964 1130z"/>
<path style="fill:#0140c2; stroke:none;" d="M1272 1130L1273 1131L1272 1130M499 1134L500 1135L499 1134z"/>
<path style="fill:#010181; stroke:none;" d="M837 1135L838 1136L837 1135z"/>
<path style="fill:#010101; stroke:none;" d="M970 1135L971 1136L970 1135M1283 1139L1284 1140L1283 1139M976 1140L977 1141L976 1140z"/>
<path style="fill:#0140c2; stroke:none;" d="M981 1144L982 1145L981 1144z"/>
<path style="fill:#010101; stroke:none;" d="M1289 1144L1290 1145L1289 1144z"/>
<path style="fill:#0140c2; stroke:none;" d="M987 1149L988 1150L987 1149z"/>
<path style="fill:#010181; stroke:none;" d="M1295 1149L1296 1150L1295 1149z"/>
<path style="fill:#2165d1; stroke:none;" d="M1621 1150L1621 1428L1672 1428L1672 1150L1621 1150M1732 1150L1732 1428L1773 1428L1773 1227L1774 1227L1804.2 1279L1860.6 1374L1883.2 1412L1893.21 1426.97L1908 1428L1942 1428L1942 1150L1902 1150L1902 1341L1822.42 1207L1799.28 1168L1788.39 1151.03L1772 1150L1732 1150M1972 1150L1972 1193L2046 1193L2046 1428L2100 1428L2100 1193L2174 1193L2174 1150L1972 1150M2204 1150L2204 1428L2385 1428L2385 1384L2255 1384L2255 1307L2358 1307L2358 1266L2255 1266L2255 1192L2383 1192L2383 1150L2204 1150M2427 1150L2427 1428L2478 1428L2478 1314L2527 1314L2546.58 1315.03L2556.95 1339L2581.19 1403L2591.42 1426.97L2606 1428L2644 1428L2626.8 1382L2596 1305C2655.84 1287.76 2662.91 1197.01 2613 1164.7C2589.63 1149.57 2561.7 1150 2535 1150L2427 1150M2661 1150L2683.97 1225L2725 1358L2740.67 1409L2747.51 1426.97L2762 1428L2799 1428C2802.78 1402.39 2814.77 1375.69 2822.66 1351C2837.43 1304.77 2851.62 1258.34 2866.03 1212C2872.25 1191.97 2881.94 1170.73 2885 1150L2842 1150C2834.11 1188.12 2818.95 1225.72 2807.72 1263C2798.26 1294.41 2791.27 1329.02 2778 1359L2762.98 1310L2732.42 1208L2720.14 1167L2714.3 1151.03L2700 1150L2661 1150M2916 1150L2916 1428L2967 1428L2967 1150L2916 1150M3027 1150L3027 1428L3208 1428L3208 1384L3078 1384L3078 1307L3181 1307L3181 1266L3078 1266L3078 1192L3206 1192L3206 1150L3027 1150M3224 1150L3275.58 1339L3291.12 1396L3299.65 1425.68L3311 1428L3340 1428L3351.44 1426.97L3356.13 1413L3365.37 1375L3402 1227L3403 1227C3404.33 1242.27 3410.84 1258.21 3414.85 1273C3423.69 1305.66 3432.85 1338.26 3441.37 1371C3444.76 1384.03 3448.46 1396.98 3451.88 1410C3453.09 1414.6 3453.84 1422.82 3457.09 1426.4C3459.59 1429.15 3465.66 1428 3469 1428C3479.45 1428 3499.28 1431.88 3508.7 1427.4C3513.07 1425.32 3513.8 1415.2 3515 1411C3519.83 1394.11 3524.31 1377.03 3528.63 1360C3540.3 1313.89 3552.69 1267.83 3565.42 1222C3571.79 1199.1 3582.06 1173.69 3584 1150L3539 1150L3501.63 1295L3488 1350L3487 1350L3471.42 1292L3445.58 1197L3433 1150L3396 1150L3381.56 1151.03L3377.12 1165L3368.13 1201L3344.13 1298L3332 1349L3317.12 1296L3292.63 1204L3282.29 1165L3277.44 1151.03L3263 1150L3224 1150z"/>
<path style="fill:#0140c2; stroke:none;" d="M496 1151L497 1152L496 1151M840 1152L841 1153L840 1152M993 1154L994 1155L993 1154M1301 1154L1302 1155L1301 1154M999 1159L1000 1160L999 1159M1307 1159L1308 1160L1307 1159z"/>
<path style="fill:#010101; stroke:none;" d="M494 1162L495 1163L494 1162z"/>
<path style="fill:#010181; stroke:none;" d="M1005 1164L1006 1165L1005 1164z"/>
<path style="fill:#0140c2; stroke:none;" d="M1313 1164L1314 1165L1313 1164M843 1169L844 1170L843 1169z"/>
<path style="fill:#010101; stroke:none;" d="M1011 1169L1012 1170L1011 1169z"/>
<path style="fill:#0140c2; stroke:none;" d="M1319 1169L1320 1170L1319 1169z"/>
<path style="fill:#010101; stroke:none;" d="M1324 1173L1325 1174L1324 1173M1017 1174L1018 1175L1017 1174z"/>
<path style="fill:#0140c2; stroke:none;" d="M1022 1178L1023 1179L1022 1178z"/>
<path style="fill:#010101; stroke:none;" d="M1330 1178L1331 1179L1330 1178z"/>
<path style="fill:#010181; stroke:none;" d="M491 1179L492 1180L491 1179z"/>
<path style="fill:#0140c2; stroke:none;" d="M1028 1183L1029 1184L1028 1183z"/>
<path style="fill:#010181; stroke:none;" d="M1336 1183L1337 1184L1336 1183z"/>
<path style="fill:#0140c2; stroke:none;" d="M846 1186L847 1187L846 1186M1034 1188L1035 1189L1034 1188M1342 1188L1343 1189L1342 1188z"/>
<path style="fill:#ffffff; stroke:none;" d="M2478 1190L2478 1273C2506.74 1273 2546.77 1280.12 2573 1266.37C2599.19 1252.64 2599.64 1211.64 2574 1197.17C2548.11 1182.57 2506.7 1190 2478 1190z"/>
<path style="fill:#010181; stroke:none;" d="M1040 1193L1041 1194L1040 1193z"/>
<path style="fill:#0140c2; stroke:none;" d="M488 1196L489 1197L488 1196z"/>
<path style="fill:#010101; stroke:none;" d="M848 1197L849 1198L848 1197M1046 1198L1047 1199L1046 1198M1052 1203L1053 1204L1052 1203M486 1207L487 1208L486 1207z"/>
<path style="fill:#0140c2; stroke:none;" d="M1057 1207L1058 1208L1057 1207M1063 1212L1064 1213L1063 1212M485 1213L486 1214L485 1213z"/>
<path style="fill:#010181; stroke:none;" d="M851 1214L852 1215L851 1214z"/>
<path style="fill:#0140c2; stroke:none;" d="M1069 1217L1070 1218L1069 1217M1075 1222L1076 1223L1075 1222z"/>
<path style="fill:#010101; stroke:none;" d="M483 1224L484 1225L483 1224z"/>
<path style="fill:#010181; stroke:none;" d="M1081 1227L1082 1228L1081 1227z"/>
<path style="fill:#0140c2; stroke:none;" d="M854 1231L855 1232L854 1231z"/>
<path style="fill:#010101; stroke:none;" d="M1087 1232L1088 1233L1087 1232z"/>
<path style="fill:#0140c2; stroke:none;" d="M1092 1236L1093 1237L1092 1236M480 1241L481 1242L480 1241M1098 1241L1099 1242L1098 1241M1104 1246L1105 1247L1104 1246M1346 1246L1347 1247L1346 1246z"/>
<path style="fill:#010101; stroke:none;" d="M1346 1247L1347 1248L1346 1247z"/>
<path style="fill:#0140c2; stroke:none;" d="M857 1248L858 1249L857 1248M1110 1251L1111 1252L1110 1251z"/>
<path style="fill:#010181; stroke:none;" d="M1116 1256L1117 1257L1116 1256z"/>
<path style="fill:#0140c2; stroke:none;" d="M477 1258L478 1259L477 1258z"/>
<path style="fill:#010101; stroke:none;" d="M859 1259L860 1260L859 1259M1122 1261L1123 1262L1122 1261z"/>
<path style="fill:#0140c2; stroke:none;" d="M860 1265L861 1266L860 1265z"/>
<path style="fill:#010101; stroke:none;" d="M1128 1266L1129 1267L1128 1266M475 1269L476 1270L475 1269z"/>
<path style="fill:#0140c2; stroke:none;" d="M1133 1270L1134 1271L1133 1270M474 1275L475 1276L474 1275M1139 1275L1140 1276L1139 1275z"/>
<path style="fill:#010181; stroke:none;" d="M862 1276L863 1277L862 1276z"/>
<path style="fill:#0140c2; stroke:none;" d="M1145 1280L1146 1281L1145 1280z"/>
<path style="fill:#010181; stroke:none;" d="M1151 1285L1152 1286L1151 1285z"/>
<path style="fill:#2165d1; stroke:none;" d="M0 1286L0 1475L0 1529C0 1535.27 -2.04503 1545.87 0.603395 1551.62C3.49983 1557.91 17.1939 1562.15 23 1565.42C44.5572 1577.58 66.3096 1589.39 88 1601.31C149.07 1634.84 209.93 1668.77 271 1702.31L329 1734.31C337.49 1738.97 346.5 1745.83 356 1748C361.884 1704.3 375.71 1659.93 385.884 1617C388.803 1604.68 391.68 1592.36 394.424 1580C395.38 1575.7 398.242 1569.5 397.107 1565.09C395.211 1557.73 378.952 1550.38 373 1546.14C348.81 1528.92 324.414 1511.93 300 1495.02C232.435 1448.23 165.091 1401.04 98 1353.58C75.7482 1337.83 53.4574 1322.11 31 1306.66C21.2146 1299.93 11.0994 1290.27 0 1286z"/>
<path style="fill:#010181; stroke:none;" d="M472 1286L473 1287L472 1286z"/>
<path style="fill:#0140c2; stroke:none;" d="M7 1290L8 1291L7 1290z"/>
<path style="fill:#010101; stroke:none;" d="M1157 1290L1158 1291L1157 1290z"/>
<path style="fill:#0140c2; stroke:none;" d="M865 1293L866 1294L865 1293z"/>
<path style="fill:#010101; stroke:none;" d="M1163 1295L1164 1296L1163 1295z"/>
<path style="fill:#0140c2; stroke:none;" d="M17 1297L18 1298L17 1297M1168 1299L1169 1300L1168 1299M469 1303L470 1304L469 1303M27 1304L28 1305L27 1304M1174 1304L1175 1305L1174 1304M1180 1309L1181 1310L1180 1309M868 1310L869 1311L868 1310M37 1311L38 1312L37 1311M1186 1314L1187 1315L1186 1314M47 1318L48 1319L47 1318z"/>
<path style="fill:#010181; stroke:none;" d="M1192 1319L1193 1320L1192 1319z"/>
<path style="fill:#0140c2; stroke:none;" d="M466 1320L467 1321L466 1320M1345.33 1322.67L1345.67 1323.33L1345.33 1322.67z"/>
<path style="fill:#010101; stroke:none;" d="M1198 1324L1199 1325L1198 1324M1345 1324L1346 1325L1345 1324z"/>
<path style="fill:#0140c2; stroke:none;" d="M57 1325L58 1326L57 1325M871 1327L872 1328L871 1327z"/>
<path style="fill:#010101; stroke:none;" d="M1204 1329L1205 1330L1204 1329M464 1331L465 1332L464 1331z"/>
<path style="fill:#0140c2; stroke:none;" d="M67 1332L68 1333L67 1332M1209 1333L1210 1334L1209 1333M463 1337L464 1338L463 1337z"/>
<path style="fill:#010101; stroke:none;" d="M873 1338L874 1339L873 1338z"/>
<path style="fill:#0140c2; stroke:none;" d="M1215 1338L1216 1339L1215 1338M77 1339L78 1340L77 1339M1221 1343L1222 1344L1221 1343M87 1346L88 1347L87 1346z"/>
<path style="fill:#010181; stroke:none;" d="M461 1348L462 1349L461 1348M1227 1348L1228 1349L1227 1348z"/>
<path style="fill:#0140c2; stroke:none;" d="M97 1353L98 1354L97 1353z"/>
<path style="fill:#010101; stroke:none;" d="M1233 1353L1234 1354L1233 1353z"/>
<path style="fill:#010181; stroke:none;" d="M876 1355L877 1356L876 1355z"/>
<path style="fill:#010101; stroke:none;" d="M1239 1358L1240 1359L1239 1358z"/>
<path style="fill:#0140c2; stroke:none;" d="M107 1360L108 1361L107 1360M1244 1362L1245 1363L1244 1362M458 1365L459 1366L458 1365M117 1367L118 1368L117 1367M1250 1367L1251 1368L1250 1367M879 1372L880 1373L879 1372M1256 1372L1257 1373L1256 1372M127 1374L128 1375L127 1374M1262 1377L1263 1378L1262 1377M137 1381L138 1382L137 1381M1206 1381L1207 1382L1206 1381z"/>
<path style="fill:#010101; stroke:none;" d="M1207 1381L1208 1382L1207 1381z"/>
<path style="fill:#0140c2; stroke:none;" d="M455 1382L456 1383L455 1382z"/>
<path style="fill:#2165d1; stroke:none;" d="M993 1745C1012.32 1736.96 1030.6 1725.26 1049 1715.31C1081.61 1697.67 1114.39 1680.33 1147 1662.69C1188.3 1640.35 1229.47 1617.71 1271 1595.78C1293.81 1583.74 1322.46 1571.84 1336.53 1549C1365.6 1501.83 1305.45 1455.65 1273 1430.65C1265.44 1424.82 1257.74 1419.16 1250 1413.58C1239.57 1406.05 1229.14 1398.48 1219 1390.58C1215.87 1388.13 1211.26 1382.62 1207 1382.64C1201.92 1382.66 1195.63 1390.62 1192 1393.73C1179.53 1404.4 1166.86 1414.8 1154 1425C1107.57 1461.82 1057.93 1494.21 1007 1524.4C991.878 1533.36 976.367 1541.62 961 1550.14C956.911 1552.41 947.431 1554.91 946.408 1560.1C945.48 1564.82 948.484 1571.43 949.627 1576C952.715 1588.35 956.037 1600.64 959.127 1613C970.127 1657 980.703 1701.34 993 1745z"/>
<path style="fill:#010181; stroke:none;" d="M1268 1382L1269 1383L1268 1382z"/>
<path style="fill:#010101; stroke:none;" d="M1213 1386L1214 1387L1213 1386M1274 1387L1275 1388L1274 1387z"/>
<path style="fill:#0140c2; stroke:none;" d="M147 1388L148 1389L147 1388M1198 1388L1199 1389L1198 1388M882 1389L883 1390L882 1389z"/>
<path style="fill:#010101; stroke:none;" d="M1218 1390L1219 1391L1218 1390z"/>
<path style="fill:#0140c2; stroke:none;" d="M1279 1391L1280 1392L1279 1391z"/>
<path style="fill:#010101; stroke:none;" d="M453 1393L454 1394L453 1393M1191 1394L1192 1395L1191 1394z"/>
<path style="fill:#0140c2; stroke:none;" d="M157 1395L158 1396L157 1395M1285 1396L1286 1397L1285 1396M1344.33 1399.67L1344.67 1400.33L1344.33 1399.67z"/>
<path style="fill:#010101; stroke:none;" d="M884 1400L885 1401L884 1400z"/>
<path style="fill:#0140c2; stroke:none;" d="M1184 1400L1185 1401L1184 1400M1291 1401L1292 1402L1291 1401M167 1402L168 1403L167 1402z"/>
<path style="fill:#010181; stroke:none;" d="M1234 1402L1235 1403L1234 1402M1178 1405L1179 1406L1178 1405z"/>
<path style="fill:#0140c2; stroke:none;" d="M1238 1405L1239 1406L1238 1405M885 1406L886 1407L885 1406M1297 1406L1298 1407L1297 1406M177 1409L178 1410L177 1409z"/>
<path style="fill:#010181; stroke:none;" d="M450 1410L451 1411L450 1410z"/>
<path style="fill:#0140c2; stroke:none;" d="M1172 1410L1173 1411L1172 1410z"/>
<path style="fill:#010181; stroke:none;" d="M1245 1410L1246 1411L1245 1410M1303 1411L1304 1412L1303 1411z"/>
<path style="fill:#0140c2; stroke:none;" d="M1249 1413L1250 1414L1249 1413z"/>
<path style="fill:#010181; stroke:none;" d="M1167 1414L1168 1415L1167 1414z"/>
<path style="fill:#0140c2; stroke:none;" d="M187 1416L188 1417L187 1416z"/>
<path style="fill:#010101; stroke:none;" d="M1309 1416L1310 1417L1309 1416z"/>
<path style="fill:#010181; stroke:none;" d="M887 1417L888 1418L887 1417z"/>
<path style="fill:#010101; stroke:none;" d="M1162 1418L1163 1419L1162 1418z"/>
<path style="fill:#010181; stroke:none;" d="M1260 1421L1261 1422L1260 1421z"/>
<path style="fill:#010101; stroke:none;" d="M1315 1421L1316 1422L1315 1421z"/>
<path style="fill:#010181; stroke:none;" d="M1157 1422L1158 1423L1157 1422M197 1423L198 1424L197 1423M1264 1424L1265 1425L1264 1424z"/>
<path style="fill:#0140c2; stroke:none;" d="M1320 1425L1321 1426L1320 1425M1152 1426L1153 1427L1152 1426M447 1427L448 1428L447 1427z"/>
<path style="fill:#010181; stroke:none;" d="M1268 1427L1269 1428L1268 1427M207 1430L208 1431L207 1430z"/>
<path style="fill:#0140c2; stroke:none;" d="M1326 1430L1327 1431L1326 1430M1143 1433L1144 1434L1143 1433M890 1434L891 1435L890 1434M1277 1434L1278 1435L1277 1434M1332 1435L1333 1436L1332 1435M1139 1436L1140 1437L1139 1436z"/>
<path style="fill:#010181; stroke:none;" d="M217 1437L218 1438L217 1437z"/>
<path style="fill:#010101; stroke:none;" d="M445 1438L446 1439L445 1438z"/>
<path style="fill:#010181; stroke:none;" d="M1135 1439L1136 1440L1135 1439M1338 1440L1339 1441L1338 1440z"/>
<path style="fill:#010101; stroke:none;" d="M1131 1442L1132 1443L1131 1442z"/>
<path style="fill:#0140c2; stroke:none;" d="M1287 1442L1288 1443L1287 1442z"/>
<path style="fill:#010181; stroke:none;" d="M227 1444L228 1445L227 1444z"/>
<path style="fill:#0140c2; stroke:none;" d="M444 1444L445 1445L444 1444z"/>
<path style="fill:#010181; stroke:none;" d="M1127 1445L1128 1446L1127 1445z"/>
<path style="fill:#0140c2; stroke:none;" d="M1293 1447L1294 1448L1293 1447M1123 1448L1124 1449L1123 1448z"/>
<path style="fill:#010181; stroke:none;" d="M237 1451L238 1452L237 1451z"/>
<path style="fill:#0140c2; stroke:none;" d="M893 1451L894 1452L893 1451M1301 1454L1302 1455L1301 1454z"/>
<path style="fill:#010101; stroke:none;" d="M442 1455L443 1456L442 1455z"/>
<path style="fill:#0140c2; stroke:none;" d="M1112 1456L1113 1457L1112 1456z"/>
<path style="fill:#010181; stroke:none;" d="M247 1458L248 1459L247 1458z"/>
<path style="fill:#0140c2; stroke:none;" d="M1105 1461L1106 1462L1105 1461z"/>
<path style="fill:#010101; stroke:none;" d="M1102 1463L1103 1464L1102 1463z"/>
<path style="fill:#010181; stroke:none;" d="M257 1465L258 1466L257 1465z"/>
<path style="fill:#0140c2; stroke:none;" d="M896 1468L897 1469L896 1468M1095 1468L1096 1469L1095 1468z"/>
<path style="fill:#010181; stroke:none;" d="M1092 1470L1093 1471L1092 1470M267 1472L268 1473L267 1472z"/>
<path style="fill:#0140c2; stroke:none;" d="M439 1472L440 1473L439 1472z"/>
<path style="fill:#010101; stroke:none;" d="M1089 1472L1090 1473L1089 1472z"/>
<path style="fill:#0140c2; stroke:none;" d="M1319 1472L1320 1473L1319 1472M274 1477L275 1478L274 1477z"/>
<path style="fill:#010181; stroke:none;" d="M277 1479L278 1480L277 1479z"/>
<path style="fill:#010101; stroke:none;" d="M898 1479L899 1480L898 1479M1325 1479L1326 1480L1325 1479z"/>
<path style="fill:#010181; stroke:none;" d="M1328 1483L1329 1484L1328 1483z"/>
<path style="fill:#0140c2; stroke:none;" d="M284 1484L285 1485L284 1484z"/>
<path style="fill:#010181; stroke:none;" d="M287 1486L288 1487L287 1486z"/>
<path style="fill:#0140c2; stroke:none;" d="M436 1489L437 1490L436 1489z"/>
<path style="fill:#010101; stroke:none;" d="M1062 1490L1063 1491L1062 1490z"/>
<path style="fill:#0140c2; stroke:none;" d="M294 1491L295 1492L294 1491M1059 1492L1060 1493L1059 1492M1334 1492L1335 1493L1334 1492z"/>
<path style="fill:#010181; stroke:none;" d="M297 1493L298 1494L297 1493M901 1496L902 1497L901 1496z"/>
<path style="fill:#0140c2; stroke:none;" d="M304 1498L305 1499L304 1498M1048 1499L1049 1500L1048 1499z"/>
<path style="fill:#010181; stroke:none;" d="M307 1500L308 1501L307 1500z"/>
<path style="fill:#010101; stroke:none;" d="M434 1500L435 1501L434 1500z"/>
<path style="fill:#0140c2; stroke:none;" d="M1040 1504L1041 1505L1040 1504M314 1505L315 1506L314 1505M433 1506L434 1507L433 1506z"/>
<path style="fill:#010181; stroke:none;" d="M317 1507L318 1508L317 1507z"/>
<path style="fill:#0140c2; stroke:none;" d="M324 1512L325 1513L324 1512M1027 1512L1028 1513L1027 1512M904 1513L905 1514L904 1513z"/>
<path style="fill:#010181; stroke:none;" d="M327 1514L328 1515L327 1514z"/>
<path style="fill:#0140c2; stroke:none;" d="M1022 1515L1023 1516L1022 1515z"/>
<path style="fill:#010181; stroke:none;" d="M431 1517L432 1518L431 1517z"/>
<path style="fill:#0140c2; stroke:none;" d="M1017 1518L1018 1519L1017 1518M334 1519L335 1520L334 1519z"/>
<path style="fill:#010181; stroke:none;" d="M337 1521L338 1522L337 1521z"/>
<path style="fill:#0140c2; stroke:none;" d="M1005 1525L1006 1526L1005 1525M344 1526L345 1527L344 1526z"/>
<path style="fill:#010181; stroke:none;" d="M347 1528L348 1529L347 1528z"/>
<path style="fill:#010101; stroke:none;" d="M998 1529L999 1530L998 1529z"/>
<path style="fill:#0140c2; stroke:none;" d="M907 1530L908 1531L907 1530M354 1533L355 1534L354 1533z"/>
<path style="fill:#010181; stroke:none;" d="M991 1533L992 1534L991 1533z"/>
<path style="fill:#0140c2; stroke:none;" d="M428 1534L429 1535L428 1534z"/>
<path style="fill:#010101; stroke:none;" d="M357 1535L358 1536L357 1535z"/>
<path style="fill:#0140c2; stroke:none;" d="M1342 1535L1343 1536L1342 1535M984 1537L985 1538L984 1537z"/>
<path style="fill:#010101; stroke:none;" d="M982 1538L983 1539L982 1538z"/>
<path style="fill:#0140c2; stroke:none;" d="M364 1540L365 1541L364 1540z"/>
<path style="fill:#010101; stroke:none;" d="M909 1541L910 1542L909 1541M367 1542L368 1543L367 1542z"/>
<path style="fill:#010181; stroke:none;" d="M973 1543L974 1544L973 1543z"/>
<path style="fill:#010101; stroke:none;" d="M1339 1543L1340 1544L1339 1543z"/>
<path style="fill:#0140c2; stroke:none;" d="M374 1547L375 1548L374 1547M910 1547L911 1548L910 1547z"/>
<path style="fill:#010101; stroke:none;" d="M377 1549L378 1550L377 1549z"/>
<path style="fill:#0140c2; stroke:none;" d="M962 1549L963 1550L962 1549z"/>
<path style="fill:#010101; stroke:none;" d="M960 1550L961 1551L960 1550z"/>
<path style="fill:#0140c2; stroke:none;" d="M425 1551L426 1552L425 1551M3 1554L4 1555L3 1554M384 1554L385 1555L384 1554z"/>
<path style="fill:#010101; stroke:none;" d="M1331 1555L1332 1556L1331 1555M387 1556L388 1557L387 1556z"/>
<path style="fill:#010181; stroke:none;" d="M912 1558L913 1559L912 1558z"/>
<path style="fill:#0140c2; stroke:none;" d="M945 1558L946 1559L945 1558z"/>
<path style="fill:#010181; stroke:none;" d="M12 1559L13 1560L12 1559M945 1559L946 1560L945 1559z"/>
<path style="fill:#0140c2; stroke:none;" d="M394 1561L395 1562L394 1561z"/>
<path style="fill:#010101; stroke:none;" d="M423 1562L424 1563L423 1562M397 1563L398 1564L397 1563M946 1563L947 1564L946 1563z"/>
<path style="fill:#0140c2; stroke:none;" d="M1323 1563L1324 1564L1323 1563z"/>
<path style="fill:#010101; stroke:none;" d="M21 1564L22 1565L21 1564M1322 1564L1323 1565L1322 1564z"/>
<path style="fill:#0140c2; stroke:none;" d="M23 1565L24 1566L23 1565M397 1566L398 1567L397 1566M422 1568L423 1569L422 1568M1317 1568L1318 1569L1317 1568M32 1570L33 1571L32 1570z"/>
<path style="fill:#010101; stroke:none;" d="M1313 1571L1314 1572L1313 1571z"/>
<path style="fill:#0140c2; stroke:none;" d="M1310 1573L1311 1574L1310 1573z"/>
<path style="fill:#010181; stroke:none;" d="M41 1575L42 1576L41 1575z"/>
<path style="fill:#0140c2; stroke:none;" d="M915 1575L916 1576L915 1575z"/>
<path style="fill:#010181; stroke:none;" d="M1307 1575L1308 1576L1307 1575z"/>
<path style="fill:#0140c2; stroke:none;" d="M1302 1578L1303 1579L1302 1578M394 1579L395 1580L394 1579z"/>
<path style="fill:#010181; stroke:none;" d="M420 1579L421 1580L420 1579z"/>
<path style="fill:#010101; stroke:none;" d="M50 1580L51 1581L50 1580z"/>
<path style="fill:#0140c2; stroke:none;" d="M52 1581L53 1582L52 1581M1293 1583L1294 1584L1293 1583M61 1586L62 1587L61 1586M953 1590L954 1591L953 1590M1280 1590L1281 1591L1280 1590z"/>
<path style="fill:#010181; stroke:none;" d="M70 1591L71 1592L70 1591z"/>
<path style="fill:#0140c2; stroke:none;" d="M391 1592L392 1593L391 1592M918 1592L919 1593L918 1592M954 1594L955 1595L954 1594z"/>
<path style="fill:#010101; stroke:none;" d="M79 1596L80 1597L79 1596z"/>
<path style="fill:#0140c2; stroke:none;" d="M417 1596L418 1597L417 1596M81 1597L82 1598L81 1597M1267 1597L1268 1598L1267 1597z"/>
<path style="fill:#010181; stroke:none;" d="M955 1598L956 1599L955 1598z"/>
<path style="fill:#0140c2; stroke:none;" d="M90 1602L91 1603L90 1602z"/>
<path style="fill:#010101; stroke:none;" d="M956 1602L957 1603L956 1602M1256 1603L1257 1604L1256 1603z"/>
<path style="fill:#0140c2; stroke:none;" d="M1254 1604L1255 1605L1254 1604M388 1605L389 1606L388 1605M99 1607L100 1608L99 1607M921 1609L922 1610L921 1609z"/>
<path style="fill:#010101; stroke:none;" d="M1243 1610L1244 1611L1243 1610z"/>
<path style="fill:#0140c2; stroke:none;" d="M1241 1611L1242 1612L1241 1611z"/>
<path style="fill:#010101; stroke:none;" d="M108 1612L109 1613L108 1612z"/>
<path style="fill:#0140c2; stroke:none;" d="M110 1613L111 1614L110 1613M414 1613L415 1614L414 1613z"/>
<path style="fill:#010101; stroke:none;" d="M1230 1617L1231 1618L1230 1617z"/>
<path style="fill:#0140c2; stroke:none;" d="M119 1618L120 1619L119 1618M385 1618L386 1619L385 1618M1228 1618L1229 1619L1228 1618z"/>
<path style="fill:#010101; stroke:none;" d="M923 1620L924 1621L923 1620z"/>
<path style="fill:#0140c2; stroke:none;" d="M128 1623L129 1624L128 1623z"/>
<path style="fill:#010101; stroke:none;" d="M412 1624L413 1625L412 1624M1217 1624L1218 1625L1217 1624z"/>
<path style="fill:#0140c2; stroke:none;" d="M1215 1625L1216 1626L1215 1625z"/>
<path style="fill:#010101; stroke:none;" d="M137 1628L138 1629L137 1628z"/>
<path style="fill:#0140c2; stroke:none;" d="M139 1629L140 1630L139 1629M963 1629L964 1630L963 1629M382 1631L383 1632L382 1631z"/>
<path style="fill:#010101; stroke:none;" d="M1204 1631L1205 1632L1204 1631z"/>
<path style="fill:#0140c2; stroke:none;" d="M1202 1632L1203 1633L1202 1632M964 1633L965 1634L964 1633M148 1634L149 1635L148 1634z"/>
<path style="fill:#010181; stroke:none;" d="M926 1637L927 1638L926 1637M965 1637L966 1638L965 1637z"/>
<path style="fill:#010101; stroke:none;" d="M1191 1638L1192 1639L1191 1638z"/>
<path style="fill:#0140c2; stroke:none;" d="M157 1639L158 1640L157 1639M1189 1639L1190 1640L1189 1639z"/>
<path style="fill:#010181; stroke:none;" d="M409 1641L410 1642L409 1641z"/>
<path style="fill:#010101; stroke:none;" d="M166 1644L167 1645L166 1644z"/>
<path style="fill:#0140c2; stroke:none;" d="M379 1644L380 1645L379 1644M168 1645L169 1646L168 1645z"/>
<path style="fill:#010101; stroke:none;" d="M1178 1645L1179 1646L1178 1645z"/>
<path style="fill:#0140c2; stroke:none;" d="M1176 1646L1177 1647L1176 1646M177 1650L178 1651L177 1650z"/>
<path style="fill:#010101; stroke:none;" d="M1165 1652L1166 1653L1165 1652z"/>
<path style="fill:#0140c2; stroke:none;" d="M1163 1653L1164 1654L1163 1653M929 1654L930 1655L929 1654M186 1655L187 1656L186 1655M376 1657L377 1658L376 1657M406 1658L407 1659L406 1658z"/>
<path style="fill:#010101; stroke:none;" d="M1152 1659L1153 1660L1152 1659M195 1660L196 1661L195 1660z"/>
<path style="fill:#0140c2; stroke:none;" d="M1150 1660L1151 1661L1150 1660M206 1666L207 1667L206 1666z"/>
<path style="fill:#010101; stroke:none;" d="M374 1666L375 1667L374 1666M1139 1666L1140 1667L1139 1666z"/>
<path style="fill:#0140c2; stroke:none;" d="M1137 1667L1138 1668L1137 1667M973 1668L974 1669L973 1668z"/>
<path style="fill:#010101; stroke:none;" d="M404 1669L405 1670L404 1669z"/>
<path style="fill:#0140c2; stroke:none;" d="M373 1670L374 1671L373 1670M215 1671L216 1672L215 1671M932 1671L933 1672L932 1671M974 1672L975 1673L974 1672z"/>
<path style="fill:#010101; stroke:none;" d="M1126 1673L1127 1674L1126 1673z"/>
<path style="fill:#0140c2; stroke:none;" d="M1124 1674L1125 1675L1124 1674M403 1675L404 1676L403 1675z"/>
<path style="fill:#010101; stroke:none;" d="M224 1676L225 1677L224 1676z"/>
<path style="fill:#010181; stroke:none;" d="M975 1676L976 1677L975 1676z"/>
<path style="fill:#010101; stroke:none;" d="M371 1679L372 1680L371 1679M1113 1680L1114 1681L1113 1680z"/>
<path style="fill:#0140c2; stroke:none;" d="M1111 1681L1112 1682L1111 1681M235 1682L236 1683L235 1682z"/>
<path style="fill:#010101; stroke:none;" d="M934 1682L935 1683L934 1682z"/>
<path style="fill:#0140c2; stroke:none;" d="M370 1683L371 1684L370 1683z"/>
<path style="fill:#010101; stroke:none;" d="M401 1686L402 1687L401 1686z"/>
<path style="fill:#0140c2; stroke:none;" d="M244 1687L245 1688L244 1687z"/>
<path style="fill:#010101; stroke:none;" d="M1100 1687L1101 1688L1100 1687z"/>
<path style="fill:#0140c2; stroke:none;" d="M935 1688L936 1689L935 1688M1098 1688L1099 1689L1098 1688z"/>
<path style="fill:#010101; stroke:none;" d="M253 1692L254 1693L253 1692M368 1692L369 1693L368 1692z"/>
<path style="fill:#010181; stroke:none;" d="M1087 1694L1088 1695L1087 1694z"/>
<path style="fill:#0140c2; stroke:none;" d="M1085 1695L1086 1696L1085 1695z"/>
<path style="fill:#010101; stroke:none;" d="M262 1697L263 1698L262 1697z"/>
<path style="fill:#0140c2; stroke:none;" d="M264 1698L265 1699L264 1698z"/>
<path style="fill:#010181; stroke:none;" d="M937 1699L938 1700L937 1699M1074 1701L1075 1702L1074 1701z"/>
<path style="fill:#0140c2; stroke:none;" d="M1072 1702L1073 1703L1072 1702M273 1703L274 1704L273 1703M398 1703L399 1704L398 1703z"/>
<path style="fill:#010101; stroke:none;" d="M365 1705L366 1706L365 1705z"/>
<path style="fill:#0140c2; stroke:none;" d="M983 1707L984 1708L983 1707z"/>
<path style="fill:#010181; stroke:none;" d="M282 1708L283 1709L282 1708M1061 1708L1062 1709L1061 1708z"/>
<path style="fill:#0140c2; stroke:none;" d="M1059 1709L1060 1710L1059 1709M984 1711L985 1712L984 1711z"/>
<path style="fill:#010101; stroke:none;" d="M291 1713L292 1714L291 1713z"/>
<path style="fill:#0140c2; stroke:none;" d="M293 1714L294 1715L293 1714z"/>
<path style="fill:#010101; stroke:none;" d="M985 1715L986 1716L985 1715z"/>
<path style="fill:#010181; stroke:none;" d="M1048 1715L1049 1716L1048 1715z"/>
<path style="fill:#0140c2; stroke:none;" d="M940 1716L941 1717L940 1716M1046 1716L1047 1717L1046 1716z"/>
<path style="fill:#010181; stroke:none;" d="M362 1718L363 1719L362 1718z"/>
<path style="fill:#0140c2; stroke:none;" d="M302 1719L303 1720L302 1719M395 1720L396 1721L395 1720z"/>
<path style="fill:#010181; stroke:none;" d="M1035 1722L1036 1723L1035 1722z"/>
<path style="fill:#0140c2; stroke:none;" d="M1033 1723L1034 1724L1033 1723z"/>
<path style="fill:#010181; stroke:none;" d="M311 1724L312 1725L311 1724z"/>
<path style="fill:#010101; stroke:none;" d="M320 1729L321 1730L320 1729z"/>
<path style="fill:#010181; stroke:none;" d="M1022 1729L1023 1730L1022 1729z"/>
<path style="fill:#0140c2; stroke:none;" d="M322 1730L323 1731L322 1730M1020 1730L1021 1731L1020 1730z"/>
<path style="fill:#010181; stroke:none;" d="M359 1731L360 1732L359 1731z"/>
<path style="fill:#010101; stroke:none;" d="M393 1731L394 1732L393 1731z"/>
<path style="fill:#0140c2; stroke:none;" d="M943 1733L944 1734L943 1733M331 1735L332 1736L331 1735z"/>
<path style="fill:#010181; stroke:none;" d="M1009 1736L1010 1737L1009 1736z"/>
<path style="fill:#0140c2; stroke:none;" d="M392 1737L393 1738L392 1737M1007 1737L1008 1738L1007 1737z"/>
<path style="fill:#010181; stroke:none;" d="M340 1740L341 1741L340 1740M996 1743L997 1744L996 1743M356 1744L357 1745L356 1744z"/>
<path style="fill:#0140c2; stroke:none;" d="M994 1744L995 1745L994 1744z"/>
<path style="fill:#010101; stroke:none;" d="M349 1745L350 1746L349 1745z"/>
<path style="fill:#0140c2; stroke:none;" d="M351 1746L352 1747L351 1746z"/>
<path style="fill:#010181; stroke:none;" d="M390 1748L391 1749L390 1748z"/>
<path style="fill:#0140c2; stroke:none;" d="M946 1750L947 1751L946 1750z"/>
<path style="fill:#010101; stroke:none;" d="M948 1761L949 1762L948 1761z"/>
<path style="fill:#0140c2; stroke:none;" d="M387 1765L388 1766L387 1765M387 1772L388 1773L387 1772z"/>
<path style="fill:#010181; stroke:none;" d="M949 1774L950 1775L949 1774z"/>
<path style="fill:#0140c2; stroke:none;" d="M392 1778L393 1779L392 1778z"/>
<path style="fill:#010101; stroke:none;" d="M944 1780L945 1781L944 1780z"/>
<path style="fill:#010181; stroke:none;" d="M397 1784L398 1785L397 1784z"/>
<path style="fill:#010101; stroke:none;" d="M939 1786L940 1787L939 1786M402 1790L403 1791L402 1790z"/>
<path style="fill:#0140c2; stroke:none;" d="M933 1793L934 1794L933 1793M408 1797L409 1798L408 1797M928 1799L929 1800L928 1799M413 1803L414 1804L413 1803M923 1805L924 1806L923 1805M418 1809L419 1810L418 1809M918 1811L919 1812L918 1811z"/>
<path style="fill:#010101; stroke:none;" d="M423 1815L424 1816L423 1815z"/>
<path style="fill:#010181; stroke:none;" d="M913 1817L914 1818L913 1817z"/>
<path style="fill:#010101; stroke:none;" d="M428 1821L429 1822L428 1821z"/>
<path style="fill:#0140c2; stroke:none;" d="M429 1822L430 1823L429 1822z"/>
<path style="fill:#010101; stroke:none;" d="M908 1823L909 1824L908 1823z"/>
<path style="fill:#0140c2; stroke:none;" d="M434 1828L435 1829L434 1828z"/>
<path style="fill:#010101; stroke:none;" d="M903 1829L904 1830L903 1829z"/>
<path style="fill:#0140c2; stroke:none;" d="M439 1834L440 1835L439 1834M897 1836L898 1837L897 1836z"/>
<path style="fill:#010181; stroke:none;" d="M444 1840L445 1841L444 1840z"/>
<path style="fill:#0140c2; stroke:none;" d="M892 1842L893 1843L892 1842z"/>
<path style="fill:#010101; stroke:none;" d="M449 1846L450 1847L449 1846z"/>
<path style="fill:#0140c2; stroke:none;" d="M887 1848L888 1849L887 1848M455 1853L456 1854L455 1853M882 1854L883 1855L882 1854M460 1859L461 1860L460 1859M877 1860L878 1861L877 1860z"/>
<path style="fill:#010181; stroke:none;" d="M465 1865L466 1866L465 1865M872 1866L873 1867L872 1866z"/>
<path style="fill:#010101; stroke:none;" d="M470 1871L471 1872L470 1871M867 1872L868 1873L867 1872z"/>
<path style="fill:#0140c2; stroke:none;" d="M476 1878L477 1879L476 1878z"/>
<path style="fill:#010101; stroke:none;" d="M862 1878L863 1879L862 1878z"/>
<path style="fill:#0140c2; stroke:none;" d="M481 1884L482 1885L481 1884M856 1885L857 1886L856 1885M486 1890L487 1891L486 1890M851 1891L852 1892L851 1891z"/>
<path style="fill:#010101; stroke:none;" d="M491 1896L492 1897L491 1896z"/>
<path style="fill:#0140c2; stroke:none;" d="M846 1897L847 1898L846 1897z"/>
<path style="fill:#010101; stroke:none;" d="M496 1902L497 1903L496 1902z"/>
<path style="fill:#0140c2; stroke:none;" d="M841 1903L842 1904L841 1903M502 1909L503 1910L502 1909z"/>
<path style="fill:#010181; stroke:none;" d="M836 1909L837 1910L836 1909z"/>
<path style="fill:#0140c2; stroke:none;" d="M507 1915L508 1916L507 1915z"/>
<path style="fill:#010181; stroke:none;" d="M831 1915L832 1916L831 1915M512 1921L513 1922L512 1921z"/>
<path style="fill:#010101; stroke:none;" d="M826 1921L827 1922L826 1921M517 1927L518 1928L517 1927M821 1927L822 1928L821 1927z"/>
<path style="fill:#0140c2; stroke:none;" d="M523 1934L524 1935L523 1934M815 1934L816 1935L815 1934M528 1940L529 1941L528 1940M810 1940L811 1941L810 1940z"/>
<path style="fill:#010181; stroke:none;" d="M533 1946L534 1947L533 1946z"/>
<path style="fill:#0140c2; stroke:none;" d="M805 1946L806 1947L805 1946z"/>
<path style="fill:#010101; stroke:none;" d="M538 1952L539 1953L538 1952z"/>
<path style="fill:#0140c2; stroke:none;" d="M800 1952L801 1953L800 1952z"/>
<path style="fill:#010181; stroke:none;" d="M795 1958L796 1959L795 1958z"/>
<path style="fill:#0140c2; stroke:none;" d="M544 1959L545 1960L544 1959z"/>
<path style="fill:#010101; stroke:none;" d="M790 1964L791 1965L790 1964z"/>
<path style="fill:#0140c2; stroke:none;" d="M549 1965L550 1966L549 1965z"/>
<path style="fill:#010101; stroke:none;" d="M785 1970L786 1971L785 1970z"/>
<path style="fill:#0140c2; stroke:none;" d="M554 1971L555 1972L554 1971z"/>
<path style="fill:#010181; stroke:none;" d="M559 1977L560 1978L559 1977z"/>
<path style="fill:#0140c2; stroke:none;" d="M779 1977L780 1978L779 1977z"/>
<path style="fill:#010101; stroke:none;" d="M564 1983L565 1984L564 1983z"/>
<path style="fill:#0140c2; stroke:none;" d="M774 1983L775 1984L774 1983M769 1989L770 1990L769 1989M570 1990L571 1991L570 1990M764 1995L765 1996L764 1995M575 1996L576 1997L575 1996M759 2001L760 2002L759 2001z"/>
<path style="fill:#010181; stroke:none;" d="M580 2002L581 2003L580 2002M754 2007L755 2008L754 2007z"/>
<path style="fill:#010101; stroke:none;" d="M585 2008L586 2009L585 2008M749 2013L750 2014L749 2013z"/>
<path style="fill:#0140c2; stroke:none;" d="M591 2015L592 2016L591 2015z"/>
<path style="fill:#010101; stroke:none;" d="M744 2019L745 2020L744 2019z"/>
<path style="fill:#0140c2; stroke:none;" d="M596 2021L597 2022L596 2021M738 2026L739 2027L738 2026z"/>
<path style="fill:#010181; stroke:none;" d="M601 2027L602 2028L601 2027z"/>
<path style="fill:#0140c2; stroke:none;" d="M733 2032L734 2033L733 2032z"/>
<path style="fill:#010101; stroke:none;" d="M606 2033L607 2034L606 2033z"/>
<path style="fill:#0140c2; stroke:none;" d="M728 2038L729 2039L728 2038M612 2040L613 2041L612 2040M723 2044L724 2045L723 2044M617 2046L618 2047L617 2046z"/>
<path style="fill:#010181; stroke:none;" d="M718 2050L719 2051L718 2050z"/>
<path style="fill:#0140c2; stroke:none;" d="M622 2052L623 2053L622 2052z"/>
<path style="fill:#010181; stroke:none;" d="M713 2056L714 2057L713 2056M627 2058L628 2059L627 2058z"/>
<path style="fill:#010101; stroke:none;" d="M708 2062L709 2063L708 2062M632 2064L633 2065L632 2064M703 2068L704 2069L703 2068z"/>
<path style="fill:#0140c2; stroke:none;" d="M638 2071L639 2072L638 2071M697 2075L698 2076L697 2075M643 2077L644 2078L643 2077M692 2081L693 2082L692 2081z"/>
<path style="fill:#010181; stroke:none;" d="M648 2083L649 2084L648 2083z"/>
<path style="fill:#0140c2; stroke:none;" d="M687 2087L688 2088L687 2087z"/>
<path style="fill:#010101; stroke:none;" d="M653 2089L654 2090L653 2089z"/>
<path style="fill:#0140c2; stroke:none;" d="M682 2093L683 2094L682 2093M659 2096L660 2097L659 2096z"/>
<path style="fill:#010181; stroke:none;" d="M677 2099L678 2100L677 2099z"/>
<path style="fill:#0140c2; stroke:none;" d="M664 2102L665 2103L664 2102z"/>
<path style="fill:#010101; stroke:none;" d="M672 2105L673 2106L672 2105z"/>
</svg>
